<?xml version="1.0" encoding="utf-8"?>
<!-- Generator: Adobe Illustrator 16.0.3, SVG Export Plug-In . SVG Version: 6.00 Build 0)  -->
<!DOCTYPE svg PUBLIC "-//W3C//DTD SVG 1.1//EN" "http://www.w3.org/Graphics/SVG/1.1/DTD/svg11.dtd">
<svg version="1.1" id="Capa_1" xmlns="http://www.w3.org/2000/svg" xmlns:xlink="http://www.w3.org/1999/xlink" x="0px" y="0px"
	 width="480px" height="640px" viewBox="0 0 480 640" enable-background="new 0 0 480 640" xml:space="preserve">
<path fill-rule="evenodd" clip-rule="evenodd" fill="none" stroke="#FFFFFF" stroke-width="11" stroke-linecap="round" stroke-linejoin="round" stroke-miterlimit="10" d="
	M303.996,351.953c31.754-3.549,42.348-20.769,44.484-38.502c0.441-3.653,0.954-7.33,0.971-10.998
	c0.095-20.166,0.127-40.334,0.024-60.5c-0.121-23.86-17.956-45.818-41.479-48.002c-1.667-0.154-3.332-0.476-5-0.477
	c-41.333-0.027-82.667-0.083-124,0.005c-20.056,0.042-39.515,14.105-45.393,37.001c-0.934,3.637-0.575,7.639-0.585,11.473
	c-0.049,19.5,0.258,39.006-0.158,58.497c-0.171,8.013,0.053,15.858,3.771,22.932c2.817,5.359,12.031,15.238,12.865,15.321"/>
<path fill-rule="evenodd" clip-rule="evenodd" fill="none" stroke="#FFFFFF" stroke-width="11" stroke-linecap="round" stroke-linejoin="round" stroke-miterlimit="10" d="
	M300.496,350.703c1.167,0.75,3.072,1.273,3.383,2.286c2.381,7.768,4.477,15.624,6.584,23.473c0.25,0.934,0.033,1.991,0.033,2.991"/>
<path fill-rule="evenodd" clip-rule="evenodd" fill="none" stroke="#FFFFFF" stroke-width="11" stroke-linecap="round" stroke-linejoin="round" stroke-miterlimit="10" d="
	M187.997,348.453c-4.333,1.167-8.767,2.05-12.983,3.547c-25.162,8.929-39.998,26.869-44.323,52.985
	c-1.541,9.3-1.34,18.982-1.049,28.463c0.256,8.34,7.442,13.991,16.355,13.998c24.833,0.019,49.667,0.007,74.5,0.007
	c20.333,0,40.669-0.213,60.999,0.101c8.585,0.133,17.468-6.39,17.21-17.105c-0.344-14.337,0.176-28.667-6.239-41.98
	c-10.12-21.006-26.204-34.91-49.502-38.818c-9.132-1.532-18.632-0.985-27.968-1.161c-8.831-0.165-17.666-0.035-26.5-0.035"/>
<circle fill-rule="evenodd" clip-rule="evenodd" fill="none" stroke="#FFFFFF" stroke-width="11" stroke-linecap="round" stroke-linejoin="round" stroke-miterlimit="10" cx="220.536" cy="273.953" r="45"/>
</svg>
