<?xml version="1.0" encoding="utf-8"?>
<!-- Generator: Adobe Illustrator 16.0.3, SVG Export Plug-In . SVG Version: 6.00 Build 0)  -->
<!DOCTYPE svg PUBLIC "-//W3C//DTD SVG 1.1//EN" "http://www.w3.org/Graphics/SVG/1.1/DTD/svg11.dtd">
<svg version="1.1" id="Capa_1" xmlns="http://www.w3.org/2000/svg" xmlns:xlink="http://www.w3.org/1999/xlink" x="0px" y="0px"
	 width="480px" height="640px" viewBox="0 0 480 640" enable-background="new 0 0 480 640" xml:space="preserve">
<path fill-rule="evenodd" clip-rule="evenodd" fill="none" stroke="#FFFFFF" stroke-width="11" stroke-linecap="round" stroke-linejoin="round" stroke-miterlimit="10" d="
	M240,419.878c0-13.5-0.018-28.95,0.324-42.441c0.092-3.635-1.482-5.663-3.598-8.038c-12.412-13.931-24.859-27.835-36.916-42.07
	c-2.59-3.059-4.836-3.155-8.131-2.436c-14.314,3.13-25.82,11.041-35.407,21.616c-10.929,12.057-16.563,26.399-16.117,42.925
	c0.194,7.161,0.06,14.332,0.024,21.499c-0.025,5.092,3.128,9.219,9.01,9.138c23.996-0.331,149.832-0.138,175.498-0.138
	c2.5,0,5.002,0.057,7.5-0.013c3.752-0.104,7.404-2.75,7.387-6.486c-0.068-14.547,1.77-29.337-2.971-43.473
	c-5.342-15.938-15.457-28.348-29.936-36.994c-5.93-3.54-12.014-6.79-18.969-8.098c-3.305-0.621-5.564-0.63-8.131,2.464
	c-11.39,13.73-23.195,27.116-34.906,40.577c-1.307,1.501-2.975,2.689-4.475,4.022"/>
<path fill-rule="evenodd" clip-rule="evenodd" fill="none" stroke="#FFFFFF" stroke-width="11" stroke-linecap="round" stroke-linejoin="round" stroke-miterlimit="10" d="
	M175.188,240.433c-0.818,8.908-0.794,17.741,1.476,26.507c7.144,27.584,32.558,48.093,61.522,48.593
	c31.105,0.536,58.266-20.321,64.814-50.641c1.742-8.064,1.188-16.626,1.688-24.959"/>
<path fill-rule="evenodd" clip-rule="evenodd" fill="none" stroke="#FFFFFF" stroke-width="11" stroke-linecap="round" stroke-linejoin="round" stroke-miterlimit="10" d="
	M168.688,219.433c2,0.333,4,0.955,6,0.958c43.334,0.056,86.667,0.042,130,0.042c4,0,8.006-0.121,11.999,0.035
	c3.683,0.145,5.483,1.873,5.591,5.963c0.328,12.586-0.811,12.007-11.59,12.005c-42.666-0.007-85.334-0.147-127.998,0.158
	c-6.176,0.044-12.339-0.4-18.5-0.13c-4.535,0.199-8.355-2.537-7.533-7.536c0.213-1.299,0.018-2.662,0.034-3.995
	c0.063-5.075,1.042-6.076,5.995-6.528c1.684-0.154,3.336-0.639,5.002-0.972"/>
<path fill-rule="evenodd" clip-rule="evenodd" fill="none" stroke="#FFFFFF" stroke-width="11" stroke-linecap="round" stroke-linejoin="round" stroke-miterlimit="10" d="
	M213.188,158.433c-9.645-0.469-16.427,5.63-22.872,11.148c-14.97,12.817-22.6,29.383-22.128,49.352"/>
<path fill-rule="evenodd" clip-rule="evenodd" fill="none" stroke="#FFFFFF" stroke-width="11" stroke-linecap="round" stroke-linejoin="round" stroke-miterlimit="10" d="
	M266.688,158.433c4.835-0.355,8.6,2.124,12.521,4.464c17.278,10.305,28.584,24.742,31.431,45.043
	c0.507,3.619,0.382,7.326,0.548,10.993"/>
<path fill-rule="evenodd" clip-rule="evenodd" fill="none" stroke="#FFFFFF" stroke-width="11" stroke-linecap="round" stroke-linejoin="round" stroke-miterlimit="10" d="
	M264.688,202.933c0-12.333,0-24.667,0-37c0-1-0.096-2.011,0.016-2.998c1.121-9.92-4.382-16.002-14.516-16.002
	c-7.333,0-14.666-0.014-22,0.004c-6.516,0.016-12.322,4.264-13.902,10.521c-0.336,1.331,0.866,2.978,0.856,4.476
	c-0.088,13.667-0.287,27.333-0.454,41"/>
</svg>
