<?xml version="1.0" encoding="utf-8"?>
<!-- Generator: Adobe Illustrator 16.0.3, SVG Export Plug-In . SVG Version: 6.00 Build 0)  -->
<!DOCTYPE svg PUBLIC "-//W3C//DTD SVG 1.1//EN" "http://www.w3.org/Graphics/SVG/1.1/DTD/svg11.dtd">
<svg version="1.1" id="Capa_1" xmlns="http://www.w3.org/2000/svg" xmlns:xlink="http://www.w3.org/1999/xlink" x="0px" y="0px"
	 width="1600px" height="900px" viewBox="0 0 1600 900" enable-background="new 0 0 1600 900" xml:space="preserve">
<path fill-rule="evenodd" clip-rule="evenodd" fill="none" stroke="#000000" stroke-width="11" stroke-linecap="round" stroke-linejoin="round" stroke-miterlimit="10" d="
	M731.997,1186.953c31.753-3.549,42.347-20.769,44.484-38.502c0.44-3.653,0.954-7.33,0.971-10.998
	c0.094-20.166,0.126-40.334,0.024-60.5c-0.121-23.86-17.956-45.818-41.479-48.002c-1.667-0.154-3.333-0.476-5-0.477
	c-41.333-0.027-82.667-0.083-124,0.005c-20.056,0.042-39.515,14.105-45.393,37.001c-0.934,3.637-0.575,7.639-0.585,11.473
	c-0.049,19.5,0.258,39.006-0.158,58.497c-0.171,8.013,0.053,15.858,3.771,22.932c2.817,5.359,12.031,15.238,12.865,15.321"/>
<path fill-rule="evenodd" clip-rule="evenodd" fill="none" stroke="#000000" stroke-width="11" stroke-linecap="round" stroke-linejoin="round" stroke-miterlimit="10" d="
	M703.497,1620.953c0.5-3.333,1.55-6.692,1.396-9.995c-0.457-9.845,2.861-17.975,10.119-24.488
	c8.546-7.669,14.163-17.113,17.485-28.017c7.396-24.268-1.869-51.261-21.928-66.595c-13.812-10.557-29.312-14.718-46.048-12.704
	c-19.393,2.334-35.033,11.65-45.565,28.773c-11.824,19.225-12.323,39.137-3.857,59.483c3.237,7.779,8.509,14.421,14.902,20.038
	c4.306,3.783,6.983,8.558,8.456,14.015c0.43,1.596,0.508,3.321,0.518,4.989c0.048,8.5,0.191,17.004-0.018,25.499
	c-0.288,11.706,5.014,17.872,15.065,21.938c14.897,6.026,29.408,4.947,42.937-3.995c5.187-3.428,8.016-8.619,7.983-14.942
	c-0.023-4.522,0.999-9.216-1.445-13.5"/>
<path fill-rule="evenodd" clip-rule="evenodd" fill="none" stroke="#000000" stroke-width="11" stroke-linecap="round" stroke-linejoin="round" stroke-miterlimit="10" d="
	M1076.309,1751.898c0-13.5-0.018-28.95,0.324-42.441c0.092-3.635-1.482-5.663-3.598-8.038
	c-12.412-13.931-24.859-27.835-36.916-42.07c-2.59-3.059-4.836-3.155-8.131-2.436c-14.314,3.13-25.82,11.041-35.407,21.616
	c-10.929,12.057-16.563,26.399-16.117,42.925c0.194,7.161,0.06,14.332,0.024,21.499c-0.025,5.092,3.128,9.219,9.01,9.138
	c23.996-0.331,149.832-0.138,175.498-0.138c2.5,0,5.002,0.057,7.5-0.013c3.752-0.104,7.404-2.75,7.387-6.486
	c-0.068-14.547,1.77-29.337-2.971-43.473c-5.342-15.938-15.457-28.348-29.936-36.994c-5.93-3.54-12.014-6.79-18.969-8.098
	c-3.305-0.621-5.564-0.63-8.131,2.464c-11.39,13.73-23.195,27.116-34.906,40.577c-1.307,1.501-2.975,2.689-4.475,4.022"/>
<path fill-rule="evenodd" clip-rule="evenodd" fill="none" stroke="#FFFFFF" stroke-width="28" stroke-linecap="round" stroke-linejoin="round" stroke-miterlimit="10" d="
	M595.412,384.553c0,71.968-0.107,143.937,0.098,215.903c0.038,13.307,2.02,26.446,15.1,33.363c4.021,2.127,8.825,3.663,13.284,3.697
	c37.377,0.287,74.756,0.164,112.136,0.164c22.546,0,45.093,0.028,67.639-0.015c8.093-0.017,9.865-2.201,9.828-10.223
	c-0.36-76-0.639-152.001-0.922-228.001c-0.049-13.028-0.107-26.06,0.018-39.086c0.213-22.335,0.57-44.67,0.865-67.005"/>
<path fill-rule="evenodd" clip-rule="evenodd" fill="none" stroke="#000000" stroke-width="11" stroke-linecap="round" stroke-linejoin="round" stroke-miterlimit="10" d="
	M672.052,1751.25c-2.453-5.736-29.115-58.668-37.068-77.792c-2.011-4.835-3.164-5.395-7.977-3.479
	c-12.364,4.922-24.778,9.74-36.983,15.037c-13.156,5.709-19.667,15.993-19.544,30.437c0.086,10.166,0.007,20.333,0.021,30.5
	c0.007,5.319,0.564,5.95,5.996,5.98c11.167,0.063,163.167,0.022,190,0.017c4.938-0.001,6.607-1.624,6.515-5.997
	c-0.214-10.166-0.716-20.344-0.428-30.497c0.415-14.594-6.6-24.504-19.15-30.368c-12.041-5.625-24.584-10.185-36.948-15.108
	c-4.393-1.749-6.214-0.818-8.457,4.487c-4.278,10.119-30.919,66.784-35.279,76.867"/>
<path fill-rule="evenodd" clip-rule="evenodd" fill="none" stroke="#000000" stroke-width="11" stroke-linecap="round" stroke-linejoin="round" stroke-miterlimit="10" d="
	M1011.496,1572.453c-0.818,8.908-0.794,17.741,1.476,26.507c7.144,27.584,32.558,48.093,61.522,48.593
	c31.105,0.536,58.266-20.321,64.814-50.641c1.742-8.064,1.188-16.626,1.688-24.959"/>
<path fill-rule="evenodd" clip-rule="evenodd" fill="none" stroke="#000000" stroke-width="11" stroke-linecap="round" stroke-linejoin="round" stroke-miterlimit="10" d="
	M1004.996,1551.453c2,0.333,4,0.955,6,0.958c43.334,0.056,86.667,0.042,130,0.042c4,0,8.006-0.121,11.999,0.035
	c3.683,0.145,5.483,1.873,5.591,5.963c0.328,12.586-0.811,12.007-11.59,12.005c-42.666-0.007-85.334-0.147-127.998,0.158
	c-6.176,0.044-12.339-0.4-18.5-0.13c-4.535,0.199-8.355-2.537-7.533-7.536c0.213-1.299,0.018-2.662,0.034-3.995
	c0.063-5.075,1.042-6.076,5.995-6.528c1.684-0.154,3.336-0.639,5.002-0.972"/>
<path fill-rule="evenodd" clip-rule="evenodd" fill="none" stroke="#FFFFFF" stroke-width="28" stroke-linecap="round" stroke-linejoin="round" stroke-miterlimit="10" d="
	M746.709,294.282c0,113.536,0,227.071,0,340.606"/>
<path fill-rule="evenodd" clip-rule="evenodd" fill="none" stroke="#FFFFFF" stroke-width="28" stroke-linecap="round" stroke-linejoin="round" stroke-miterlimit="10" d="
	M772.673,289.562c-12.592-32.895-29.138-65.883-55.507-89.056c-17.063-14.996-37.518-15.615-53.291-3.099
	c-13.145,10.43-18.839,32.655-7.054,49.416c8.083,11.497,19.126,19.185,31.24,24.921c6.6,3.125,15.529,12.605,19.646,18.592"/>
<path fill-rule="evenodd" clip-rule="evenodd" fill="none" stroke="#FFFFFF" stroke-width="28" stroke-linecap="round" stroke-linejoin="round" stroke-miterlimit="10" d="
	M852.178,289.406c4.477-7.371,14.501-15.759,21.781-19.359c10.95-5.417,20.428-12.934,27.578-23.248
	c18.687-26.95-2.221-54.203-23.996-57.704c-13.122-2.108-24.593,1.765-34.69,10.295c-22.587,19.083-38.119,43.793-50.673,70.736
	c-2.618,5.618-5.264,15.415-7.341,21.31"/>
<path fill-rule="evenodd" clip-rule="evenodd" fill="none" stroke="#FFFFFF" stroke-width="28" stroke-linecap="round" stroke-linejoin="round" stroke-miterlimit="10" d="
	M873.086,291.491c33.819,0,67.639-0.031,101.457,0.018c10.071,0.015,14.117,3.319,14.188,12.08c0.163,21.713,0.152,43.43,0,65.144
	c-0.056,8.243-3.668,11.377-11.508,12.185c-8.938,0.92-17.779,0.449-26.714,0.083c-15.107-0.619-30.254-0.17-45.384-0.17
	c-15.129,0-30.26,0-45.389,0c-15.723,0-31.445,0-47.169,0c-15.13,0-30.259,0-45.389,0c-15.425,0-30.852,0-46.279,0
	c-15.13,0-30.259,0-45.389,0c-15.425,0-30.873,0.529-46.272-0.149c-15.157-0.669-30.207,2.134-45.415,0.337
	c-10.049-1.188-13.28-3.585-13.313-14.147c-0.059-19.543-0.017-39.086-0.017-58.629c0-12.953,3.566-16.731,16.02-16.742
	c32.336-0.027,64.673-0.184,97.008,0.12L873.086,291.491z"/>
<path fill-rule="evenodd" clip-rule="evenodd" fill="none" stroke="#FFFFFF" stroke-width="28" stroke-linecap="round" stroke-linejoin="round" stroke-miterlimit="10" d="
	M930.799,626.367c43.319-44.342,86.195-89.164,129.123-133.925c3.118-3.252,4.975-7.851,8.148-11.019
	c9.57-9.548,19.444-18.767,29.307-27.986c8.671-8.104,8.5-21.527,0.045-29.868c-9.758-9.63-18.897-19.948-28.58-29.667
	c-10.61-10.646-18.933-10.63-29.209,1.002c-8.837,9.996-20.713,17.246-25.932,30.596c-16.7,8.053-26.692,24.341-39.628,36.77
	c-27.766,26.678-53.238,55.968-79.618,84.22c-7.77,8.318-17,15.751-22.621,25.451c-4.019,6.937-6.623,15.345-10.078,23.05
	l-19.701,60.343l54.4-12.137C896.455,643.196,921.646,635.733,930.799,626.367z"/>
<path fill-rule="evenodd" clip-rule="evenodd" fill="none" stroke="#000000" stroke-width="11" stroke-linecap="round" stroke-linejoin="round" stroke-miterlimit="10" d="
	M1049.496,1490.453c-9.645-0.469-16.427,5.63-22.872,11.148c-14.97,12.817-22.6,29.383-22.128,49.352"/>
<path fill-rule="evenodd" clip-rule="evenodd" fill="none" stroke="#000000" stroke-width="11" stroke-linecap="round" stroke-linejoin="round" stroke-miterlimit="10" d="
	M1102.996,1490.453c4.835-0.355,8.6,2.124,12.521,4.464c17.278,10.305,28.584,24.742,31.431,45.043
	c0.507,3.619,0.382,7.326,0.548,10.993"/>
<path fill-rule="evenodd" clip-rule="evenodd" fill="none" stroke="#000000" stroke-width="11" stroke-linecap="round" stroke-linejoin="round" stroke-miterlimit="10" d="
	M653.747,1556.453c2.25,2.833,4.171,6.037,6.835,8.404c3.203,2.846,4.028,6.032,3.981,10.097
	c-0.169,14.665-0.066,29.332-0.066,43.999"/>
<path fill-rule="evenodd" clip-rule="evenodd" fill="none" stroke="#000000" stroke-width="11" stroke-linecap="round" stroke-linejoin="round" stroke-miterlimit="10" d="
	M689.747,1556.453c1.071,3.451-2.142,4.588-3.846,5.873c-5.556,4.191-6.752,9.496-6.536,16.131
	c0.44,13.486,0.132,26.996,0.132,40.496"/>
<path fill-rule="evenodd" clip-rule="evenodd" fill="none" stroke="#000000" stroke-width="11" stroke-linecap="round" stroke-linejoin="round" stroke-miterlimit="10" d="
	M1100.996,1534.953c0-12.333,0-24.667,0-37c0-1-0.096-2.011,0.016-2.998c1.121-9.92-4.382-16.002-14.516-16.002
	c-7.333,0-14.666-0.014-22,0.004c-6.516,0.016-12.322,4.264-13.902,10.521c-0.336,1.331,0.866,2.978,0.856,4.476
	c-0.088,13.667-0.287,27.333-0.454,41"/>
<path fill-rule="evenodd" clip-rule="evenodd" fill="none" stroke="#FFFFFF" stroke-width="28" stroke-linecap="round" stroke-linejoin="round" stroke-miterlimit="10" d="
	M963.863,384.553c0,18.301,0.369,36.615-0.149,54.9c-0.271,9.496,0.69,17.771,9.049,23.271"/>
<path fill-rule="evenodd" clip-rule="evenodd" fill="none" stroke="#000000" stroke-width="11" stroke-linecap="round" stroke-linejoin="round" stroke-miterlimit="10" d="
	M686.19,1722.035c-1.842-6.879-6.382-25.57-10.083-39.082l4.893-9.578h-18.125l5.122,9.578
	c-3.184,11.109-8.781,31.004-10.434,37.609"/>
<path fill-rule="evenodd" clip-rule="evenodd" fill="none" stroke="#FFFFFF" stroke-width="28" stroke-linecap="round" stroke-linejoin="round" stroke-miterlimit="10" d="
	M1014.592,426.43c17.504,18.302,35.008,36.605,52.509,54.907"/>
<path fill-rule="evenodd" clip-rule="evenodd" fill="none" stroke="#FFFFFF" stroke-width="28" stroke-linecap="round" stroke-linejoin="round" stroke-miterlimit="10" d="
	M868.42,582.163c5.34,4.653,12.888,10.611,17.971,15.554c9.063,8.81,17.963,17.817,26.657,27.024
	c2.068,2.189,3.055,5.494,4.537,8.286"/>
<path fill-rule="evenodd" clip-rule="evenodd" fill="none" stroke="#000000" stroke-width="11" stroke-linecap="round" stroke-linejoin="round" stroke-miterlimit="10" d="
	M702.997,1620.953c-10.5,0.77-21-0.313-31.5-0.314c-10.333-0.003-20.667,1.148-31,0.314"/>
<path fill-rule="evenodd" clip-rule="evenodd" fill="none" stroke="#000000" stroke-width="11" stroke-linecap="round" stroke-linejoin="round" stroke-miterlimit="10" d="
	M728.497,1185.703c1.167,0.75,3.072,1.273,3.382,2.286c2.38,7.768,4.477,15.624,6.583,23.473c0.25,0.934,0.034,1.991,0.034,2.991"/>
<path fill-rule="evenodd" clip-rule="evenodd" fill="none" stroke="#000000" stroke-width="11" stroke-linecap="round" stroke-linejoin="round" stroke-miterlimit="10" d="
	M615.997,1183.453c-4.333,1.167-8.767,2.05-12.983,3.547c-25.162,8.929-39.998,26.869-44.323,52.985
	c-1.541,9.3-1.34,18.982-1.049,28.463c0.256,8.34,7.442,13.991,16.355,13.998c24.833,0.019,49.667,0.007,74.5,0.007
	c20.333,0,40.67-0.213,60.999,0.101c8.585,0.133,17.467-6.39,17.21-17.105c-0.344-14.337,0.175-28.667-6.239-41.98
	c-10.121-21.006-26.205-34.91-49.502-38.818c-9.132-1.532-18.632-0.985-27.968-1.161c-8.831-0.165-17.666-0.035-26.5-0.035"/>
<circle fill-rule="evenodd" clip-rule="evenodd" fill="none" stroke="#000000" stroke-width="11" stroke-linecap="round" stroke-linejoin="round" stroke-miterlimit="10" cx="648.536" cy="1108.953" r="45"/>
<line fill-rule="evenodd" clip-rule="evenodd" fill="none" stroke="#000000" stroke-width="11" stroke-linecap="round" stroke-linejoin="round" stroke-miterlimit="10" x1="667.997" y1="1682.953" x2="676.107" y2="1682.953"/>
</svg>
