<?xml version="1.0" encoding="utf-8"?>
<!-- Generator: Adobe Illustrator 16.0.3, SVG Export Plug-In . SVG Version: 6.00 Build 0)  -->
<!DOCTYPE svg PUBLIC "-//W3C//DTD SVG 1.1//EN" "http://www.w3.org/Graphics/SVG/1.1/DTD/svg11.dtd">
<svg version="1.1" id="Capa_1" xmlns="http://www.w3.org/2000/svg" xmlns:xlink="http://www.w3.org/1999/xlink" x="0px" y="0px"
	 width="480px" height="640px" viewBox="0 0 480 640" enable-background="new 0 0 480 640" xml:space="preserve">
<path fill-rule="evenodd" clip-rule="evenodd" fill="none" stroke="#FFFFFF" stroke-width="11" stroke-linecap="round" stroke-linejoin="round" stroke-miterlimit="10" d="
	M271.75,287.638c0.5-3.333,1.55-6.692,1.396-9.995c-0.457-9.845,2.861-17.975,10.119-24.488
	c8.545-7.669,14.162-17.113,17.484-28.017c7.396-24.268-1.869-51.261-21.928-66.595c-13.812-10.557-29.313-14.718-46.048-12.704
	c-19.394,2.334-35.033,11.65-45.565,28.773c-11.824,19.225-12.322,39.137-3.857,59.483c3.237,7.779,8.51,14.421,14.902,20.038
	c4.307,3.783,6.983,8.558,8.455,14.015c0.431,1.596,0.509,3.321,0.519,4.989c0.048,8.5,0.191,17.004-0.018,25.499
	c-0.288,11.706,5.015,17.872,15.065,21.938c14.897,6.026,29.408,4.947,42.937-3.995c5.187-3.428,8.016-8.619,7.983-14.942
	c-0.023-4.522,0.999-9.216-1.445-13.5"/>
<path fill-rule="evenodd" clip-rule="evenodd" fill="none" stroke="#FFFFFF" stroke-width="11" stroke-linecap="round" stroke-linejoin="round" stroke-miterlimit="10" d="
	M240.305,417.935c-2.452-5.736-29.114-58.668-37.067-77.792c-2.011-4.835-3.163-5.395-7.978-3.479
	c-12.363,4.922-24.777,9.74-36.982,15.037c-13.156,5.709-19.667,15.993-19.544,30.437c0.087,10.166,0.007,20.333,0.021,30.5
	c0.007,5.319,0.564,5.95,5.996,5.98c11.166,0.063,163.166,0.022,190,0.017c4.938-0.001,6.607-1.624,6.516-5.997
	c-0.215-10.166-0.717-20.344-0.428-30.497c0.414-14.594-6.6-24.504-19.15-30.368c-12.041-5.625-24.584-10.185-36.948-15.108
	c-4.394-1.749-6.214-0.818-8.457,4.487c-4.278,10.119-30.919,66.784-35.278,76.867"/>
<path fill-rule="evenodd" clip-rule="evenodd" fill="none" stroke="#FFFFFF" stroke-width="11" stroke-linecap="round" stroke-linejoin="round" stroke-miterlimit="10" d="
	M222,223.138c2.25,2.833,4.171,6.037,6.835,8.404c3.202,2.846,4.028,6.032,3.981,10.097c-0.169,14.665-0.066,29.332-0.066,43.999"/>
<path fill-rule="evenodd" clip-rule="evenodd" fill="none" stroke="#FFFFFF" stroke-width="11" stroke-linecap="round" stroke-linejoin="round" stroke-miterlimit="10" d="
	M258,223.138c1.071,3.451-2.142,4.588-3.846,5.873c-5.557,4.191-6.752,9.496-6.536,16.131c0.44,13.486,0.132,26.996,0.132,40.496"/>
<path fill-rule="evenodd" clip-rule="evenodd" fill="none" stroke="#FFFFFF" stroke-width="11" stroke-linecap="round" stroke-linejoin="round" stroke-miterlimit="10" d="
	M254.443,388.72c-1.842-6.879-6.382-25.57-10.083-39.082l4.894-9.578h-18.125l5.121,9.578c-3.184,11.109-8.781,31.004-10.434,37.609
	"/>
<path fill-rule="evenodd" clip-rule="evenodd" fill="none" stroke="#FFFFFF" stroke-width="11" stroke-linecap="round" stroke-linejoin="round" stroke-miterlimit="10" d="
	M271.25,287.638c-10.5,0.77-21-0.313-31.5-0.314c-10.334-0.003-20.666,1.148-31,0.314"/>
<line fill-rule="evenodd" clip-rule="evenodd" fill="none" stroke="#FFFFFF" stroke-width="11" stroke-linecap="round" stroke-linejoin="round" stroke-miterlimit="10" x1="236.25" y1="349.638" x2="244.36" y2="349.638"/>
</svg>
