<?xml version="1.0" encoding="utf-8"?>
<!-- Generator: Adobe Illustrator 16.0.3, SVG Export Plug-In . SVG Version: 6.00 Build 0)  -->
<!DOCTYPE svg PUBLIC "-//W3C//DTD SVG 1.1//EN" "http://www.w3.org/Graphics/SVG/1.1/DTD/svg11.dtd">
<svg version="1.1" xmlns="http://www.w3.org/2000/svg" xmlns:xlink="http://www.w3.org/1999/xlink" x="0px" y="0px" width="368.5px"
	 height="226.77px" viewBox="0 0 368.5 226.77" enable-background="new 0 0 368.5 226.77" xml:space="preserve">
<g id="Capa_1">
	<path fill-rule="evenodd" clip-rule="evenodd" fill="#180A55" d="M297.42,12.5c22.06,47.447,43.874,94.36,66.282,142.562
		c-13.385,0-25.604,0-38.161,0c-8.054-22.816-8.054-22.816-12.809-34.076c-5.545-13.124-11.654-25.861-17.784-39.352
		c-1.439,2.453-1.439,2.453-1.945,3.444c-17.3,33.711-56.775,104.732-56.775,104.732h-26.725l16.479-3.523
		c0,0,44.968-80.534,55.932-101.502c5.072-9.705,10.098-19.448,15.431-29.726c1.345,2.483,2.596,4.544,3.641,6.764
		c2.746,5.853,35.011,84.407,35.011,84.407l11.834,0.416c0,0-42.002-95.399-50.674-113.521c-1.506,2.468-2.398,3.833-3.211,5.274
		c-15.737,27.968-31.477,55.941-47.199,83.923c-1.653,2.943-21.096,37.396-21.096,37.396L25.216,183.301
		c0,0,14.373-2.195,20.626-3.272c46.443-7.988,92.902-15.825,139.367-23.608c3.658-0.612,33.84-6.057,33.84-6.057
		s35.341-62.519,44.178-77.903C274.526,52.794,285.722,33.029,297.42,12.5z"/>
	<path fill-rule="evenodd" clip-rule="evenodd" fill="#180A55" d="M8.032,181.225c7.081-3.005,54.636-22.881,54.636-22.881
		l-0.111-14.681l-4.084,0.236c0,0,8.129-19.07,10.263-23.734c0.829-1.81,6.626-14.199,6.626-14.199s-2.489-5.252-2.814-5.336
		c-4.363,8.887-8.763,17.745-13.074,26.673c-2.099,4.347-6.976,15.035-6.976,15.035l-4.232,0.284c0,0,19.148-40.999,25.055-53.395
		c9.246,15.537,16.145,28.104,25.202,44.539c1.757-0.154,2.826-0.222,3.544-0.189c-7.191-14.035-14.538-28.272-22.427-43.67
		c1.174,0.252,15.839,1.474,15.839,1.474s28.376-52.437,37.39-70.207c1.268-2.498,2.712-4.852,4.118-7.351
		c25.962,38.364,51.669,76.347,77.342,114.285c-68.87,17.818-137.508,35.576-206.147,53.335
		C8.133,181.372,8.083,181.299,8.032,181.225z M123.723,139.571c23.882-7.118,46.992-14.004,71.098-21.19
		c-15.597-22.628-30.408-44.117-45.495-66.005c-1.347,2.142-2.195,3.415-2.979,4.749c-2.583,4.392-24.415,45.157-24.415,45.157
		S123.723,135.411,123.723,139.571z M136.298,29.885c-13.096,25.519-26.039,50.739-39.331,76.64
		c0.193,0.018,7.939,1.147,7.939,1.147l36.574-69.844L136.298,29.885z M96.156,146.899c-5.641-11.177-10.879-21.556-16.569-32.831
		c-4.325,9.902-10.47,28.352-10.47,28.352s0.167,4.546,0.417,13.89C78.014,153.398,87.201,149.973,96.156,146.899z"/>
	<path fill-rule="evenodd" clip-rule="evenodd" fill="#180A55" d="M223.052,114.813c-24.791-32.604-49.207-64.709-73.619-96.814
		c0.264-0.563,0.529-1.125,0.793-1.688c12.563,5.871,25.914,12.06,38.454,17.919c0.169-0.993,0.973-11.242,1.013-11.704
		c7.09-2.819,0,0,7.09-2.819c10.286-4.089,18.33,3.272,26.082,8.12c0.881,0.55,0,0,0,0c0.188,3.889,0.02,11.917,0.02,16.461
		c21.26-9.533,43.703-19.6,64.267-28.822c0.32,0.509-0.242-0.39,0,0C266.349,47.626,244.403,81.806,223.052,114.813z
		 M217.789,48.838c0.26-9.213,0.204-19.437,0.204-19.437s-5.613-5.093-12.518-10.723c0,7.655,0.057,16.917,0.192,24.173l0,0
		C209.145,44.699,214.178,47.159,217.789,48.838z"/>
	<path fill-rule="evenodd" clip-rule="evenodd" fill="#180A55" d="M365,214.27c-117.836-3.01-233.994-8.537-352.292-12.075
		c-0.001-0.502,228.64-2.305,228.64-2.305s95.178,9.663,118.91,13.108C361.856,213.231,363.42,213.837,365,214.27z"/>
	<path fill-rule="evenodd" clip-rule="evenodd" fill="#180A55" d="M296.308,172.18c-3.161,0-6.159,0-9.295,0
		c0-5.504,0-10.511,0-15.866c3.136,0,6.022,0,9.295,0C296.308,161.501,296.308,166.643,296.308,172.18z"/>
	<path fill-rule="evenodd" clip-rule="evenodd" fill="#180A55" d="M140.114,102.281c2.801,0,5.507,0,8.498,0
		c0,4.088,0,7.949,0,12.39c-2.779,0-5.462,0-8.498,0C140.114,110.708,140.114,106.714,140.114,102.281z"/>
	<path fill-rule="evenodd" clip-rule="evenodd" fill="#180A55" d="M151.012,102.281c2.802,0,5.508,0,8.499,0
		c0,4.088,0,7.949,0,12.39c-2.779,0-5.464,0-8.499,0C151.012,110.708,151.012,106.714,151.012,102.281z"/>
	<path fill-rule="evenodd" clip-rule="evenodd" fill="#180A55" d="M151.012,86.882c2.802,0,5.508,0,8.499,0
		c0,4.088,0,7.948,0,12.391c-2.779,0-5.464,0-8.499,0C151.012,95.31,151.012,91.316,151.012,86.882z"/>
	<path fill-rule="evenodd" clip-rule="evenodd" fill="#180A55" d="M140.114,86.882c2.801,0,5.507,0,8.498,0
		c0,4.088,0,7.948,0,12.391c-2.779,0-5.462,0-8.498,0C140.114,95.31,140.114,91.316,140.114,86.882z"/>
	<path fill-rule="evenodd" clip-rule="evenodd" fill="#180A55" d="M309.342,150.364c-3.159,0-6.16,0-9.292,0
		c0-5.502,0-10.509,0-15.865c3.132,0,6.021,0,9.292,0C309.342,139.686,309.342,144.826,309.342,150.364z"/>
	<path fill-rule="evenodd" clip-rule="evenodd" fill="#180A55" d="M296.308,150.364c-3.161,0-6.159,0-9.295,0
		c0-5.502,0-10.509,0-15.865c3.136,0,6.022,0,9.295,0C296.308,139.686,296.308,144.826,296.308,150.364z"/>
	<path fill-rule="evenodd" clip-rule="evenodd" fill="#180A55" d="M309.342,172.257c-3.159,0-6.16,0-9.292,0
		c0-5.501,0-10.511,0-15.865c3.132,0,6.021,0,9.292,0C309.342,161.58,309.342,166.72,309.342,172.257z"/>
	<path fill-rule="evenodd" clip-rule="evenodd" fill="#180A55" d="M283.459,150.364c-3.159,0-6.16,0-9.291,0
		c0-5.502,0-10.509,0-15.865c3.131,0,6.021,0,9.291,0C283.459,139.686,283.459,144.826,283.459,150.364z"/>
	<path fill-rule="evenodd" clip-rule="evenodd" fill="#180A55" d="M283.459,172.257c-3.159,0-6.16,0-9.291,0
		c0-5.501,0-10.511,0-15.865c3.131,0,6.021,0,9.291,0C283.459,161.58,283.459,166.72,283.459,172.257z"/>
</g>
<g id="Capa_2">
</g>
<g id="Capa_3">
</g>
<g id="Capa_4">
</g>
</svg>
