<?xml version="1.0" encoding="utf-8"?>
<!-- Generator: Adobe Illustrator 16.0.3, SVG Export Plug-In . SVG Version: 6.00 Build 0)  -->
<!DOCTYPE svg PUBLIC "-//W3C//DTD SVG 1.1//EN" "http://www.w3.org/Graphics/SVG/1.1/DTD/svg11.dtd">
<svg version="1.1" xmlns="http://www.w3.org/2000/svg" xmlns:xlink="http://www.w3.org/1999/xlink" x="0px" y="0px" width="368.5px"
	 height="226.77px" viewBox="0 0 368.5 226.77" enable-background="new 0 0 368.5 226.77" xml:space="preserve">
<g id="Capa_1">
	<path fill-rule="evenodd" clip-rule="evenodd" fill="#FFFFFF" d="M236.764,31.549c12.779,23.957,25.416,47.645,38.397,71.982
		c-7.754,0-14.833,0-22.106,0c-4.666-11.52-4.666-11.52-7.421-17.206c-3.212-6.626-6.751-13.058-10.302-19.87
		c-0.834,1.239-0.834,1.239-1.127,1.739c-10.022,17.021-32.891,52.882-32.891,52.882h-15.482l9.547-1.779
		c0,0,26.05-40.663,32.401-51.25c2.938-4.9,5.85-9.819,8.939-15.009c0.778,1.254,1.503,2.294,2.108,3.415
		c1.591,2.955,20.282,42.619,20.282,42.619l6.855,0.21c0,0-24.332-48.168-29.355-57.318c-0.872,1.246-1.39,1.935-1.86,2.663
		c-9.117,14.122-18.234,28.246-27.343,42.375c-0.958,1.486-12.221,18.882-12.221,18.882L79.074,117.791
		c0,0,8.326-1.108,11.949-1.652c26.905-4.033,53.819-7.99,80.736-11.92c2.119-0.309,19.604-3.058,19.604-3.058
		s20.474-31.567,25.593-39.335C223.501,51.895,229.986,41.915,236.764,31.549z"/>
	<path fill-rule="evenodd" clip-rule="evenodd" fill="#FFFFFF" d="M69.119,116.743c4.102-1.518,31.651-11.554,31.651-11.554
		l-0.064-7.413l-2.366,0.12c0,0,4.709-9.629,5.945-11.984c0.48-0.913,3.838-7.169,3.838-7.169s-1.442-2.652-1.63-2.694
		c-2.528,4.487-5.077,8.959-7.574,13.467c-1.216,2.195-4.041,7.591-4.041,7.591l-2.452,0.144c0,0,11.093-20.701,14.515-26.96
		c5.356,7.845,9.353,14.19,14.6,22.488c1.018-0.078,1.637-0.112,2.053-0.095c-4.166-7.087-8.421-14.275-12.992-22.05
		c0.68,0.127,9.175,0.744,9.175,0.744s16.439-26.476,21.661-35.449c0.734-1.261,1.571-2.45,2.386-3.711
		c15.04,19.371,29.932,38.549,44.805,57.704c-39.897,8.997-79.66,17.963-119.422,26.93C69.177,116.816,69.148,116.78,69.119,116.743
		z M136.14,95.71c13.835-3.594,27.223-7.071,41.188-10.7c-9.035-11.425-17.616-22.276-26.355-33.327
		c-0.781,1.082-1.272,1.724-1.726,2.397c-1.496,2.218-14.144,22.801-14.144,22.801S136.14,93.61,136.14,95.71z M143.424,40.328
		c-7.586,12.885-15.084,25.619-22.785,38.697c0.112,0.009,4.6,0.579,4.6,0.579l21.188-35.266L143.424,40.328z M120.17,99.411
		c-3.268-5.644-6.302-10.884-9.599-16.578c-2.505,5-6.065,14.316-6.065,14.316s0.097,2.295,0.242,7.013
		C109.66,102.692,114.982,100.962,120.17,99.411z"/>
	<path fill-rule="evenodd" clip-rule="evenodd" fill="#FFFFFF" d="M193.682,83.209c-14.362-16.462-28.506-32.673-42.648-48.883
		c0.153-0.284,0.307-0.568,0.46-0.852c7.278,2.964,15.012,6.089,22.276,9.048c0.097-0.501,0.563-5.676,0.586-5.91
		c4.107-1.423,0,0,4.107-1.423c5.959-2.065,10.619,1.652,15.11,4.1c0.51,0.277,0,0,0,0c0.108,1.963,0.011,6.017,0.011,8.312
		c12.316-4.813,25.317-9.896,37.23-14.553c0.186,0.257-0.141-0.197,0,0C218.764,49.286,206.051,66.543,193.682,83.209z
		 M190.633,49.897c0.15-4.652,0.118-9.814,0.118-9.814s-3.252-2.572-7.251-5.414c0,3.865,0.033,8.542,0.111,12.206l0,0
		C185.625,47.808,188.541,49.05,190.633,49.897z"/>
	<path fill-rule="evenodd" clip-rule="evenodd" fill="#FFFFFF" d="M184.149,7.468c14.777-0.063,29.317,1.914,43.548,6.379
		c15.214,4.774,29.754,11.483,42.922,21.185c8.773,6.464,17.224,13.669,25.02,21.524c10.002,10.079,18.468,21.761,25.745,34.528
		c9.427,16.537,16.209,34.208,20.583,53.156c2.925,12.672,4.4,25.492,4.75,38.514c-2,0.113,0,0-2,0.113
		c-0.805-20.893-4.394-41.158-11.374-60.583c-5.311-14.777-12.259-28.558-20.954-41.276c-11.559-16.906-25.251-31.139-41.294-42.675
		c-15.078-10.841-31.304-18.531-48.715-23.353c-24.038-6.659-48.146-6.846-72.281-1.105c-16.742,3.983-32.58,10.85-47.299,20.583
		C82.205,48.077,65.003,65.868,51.5,87.92c-10.581,17.282-18.177,36.073-22.859,56.385c-2.899,12.576-4.86,38.207-4.86,38.207
		l-2.028,0.053c0,0,2.311-32.359,7.15-47.84c2.197-7.023,4.389-14.078,7.064-20.885c6.093-15.498,14.261-29.593,24.142-42.464
		c9.587-12.488,20.418-23.426,32.636-32.658c13.734-10.379,28.556-18.128,44.434-23.604C152.516,9.823,168.176,7.593,184.149,7.468z
		"/>
	<path fill-rule="evenodd" clip-rule="evenodd" fill="#FFFFFF" d="M275.913,133.427c-68.263-1.52-135.554-4.311-204.085-6.097
		c0-0.254,132.453-1.164,132.453-1.164s55.137,4.879,68.885,6.619C274.092,132.903,274.998,133.208,275.913,133.427z"/>
	<path fill-rule="evenodd" clip-rule="evenodd" fill="#FFFFFF" d="M236.119,112.175c-1.831,0-3.568,0-5.385,0
		c0-2.779,0-5.307,0-8.011c1.816,0,3.489,0,5.385,0C236.119,106.784,236.119,109.379,236.119,112.175z"/>
	<path fill-rule="evenodd" clip-rule="evenodd" fill="#FFFFFF" d="M145.635,76.882c1.623,0,3.19,0,4.923,0c0,2.064,0,4.014,0,6.256
		c-1.61,0-3.165,0-4.923,0C145.635,81.137,145.635,79.12,145.635,76.882z"/>
	<path fill-rule="evenodd" clip-rule="evenodd" fill="#FFFFFF" d="M151.948,76.882c1.623,0,3.191,0,4.923,0c0,2.064,0,4.014,0,6.256
		c-1.61,0-3.165,0-4.923,0C151.948,81.137,151.948,79.12,151.948,76.882z"/>
	<path fill-rule="evenodd" clip-rule="evenodd" fill="#FFFFFF" d="M151.948,69.106c1.623,0,3.191,0,4.923,0c0,2.064,0,4.013,0,6.256
		c-1.61,0-3.165,0-4.923,0C151.948,73.362,151.948,71.345,151.948,69.106z"/>
	<path fill-rule="evenodd" clip-rule="evenodd" fill="#FFFFFF" d="M145.635,69.106c1.623,0,3.19,0,4.923,0c0,2.064,0,4.013,0,6.256
		c-1.61,0-3.165,0-4.923,0C145.635,73.362,145.635,71.345,145.635,69.106z"/>
	<path fill-rule="evenodd" clip-rule="evenodd" fill="#FFFFFF" d="M243.67,101.16c-1.83,0-3.568,0-5.383,0c0-2.778,0-5.307,0-8.01
		c1.814,0,3.487,0,5.383,0C243.67,95.769,243.67,98.364,243.67,101.16z"/>
	<path fill-rule="evenodd" clip-rule="evenodd" fill="#FFFFFF" d="M236.119,101.16c-1.831,0-3.568,0-5.385,0c0-2.778,0-5.307,0-8.01
		c1.816,0,3.489,0,5.385,0C236.119,95.769,236.119,98.364,236.119,101.16z"/>
	<path fill-rule="evenodd" clip-rule="evenodd" fill="#FFFFFF" d="M243.67,112.214c-1.83,0-3.568,0-5.383,0c0-2.777,0-5.307,0-8.01
		c1.814,0,3.487,0,5.383,0C243.67,106.823,243.67,109.418,243.67,112.214z"/>
	<path fill-rule="evenodd" clip-rule="evenodd" fill="#FFFFFF" d="M228.676,101.16c-1.83,0-3.568,0-5.383,0c0-2.778,0-5.307,0-8.01
		c1.814,0,3.488,0,5.383,0C228.676,95.769,228.676,98.364,228.676,101.16z"/>
	<path fill-rule="evenodd" clip-rule="evenodd" fill="#FFFFFF" d="M228.676,112.214c-1.83,0-3.568,0-5.383,0c0-2.777,0-5.307,0-8.01
		c1.814,0,3.488,0,5.383,0C228.676,106.823,228.676,109.418,228.676,112.214z"/>
</g>
<g id="Capa_2">
	<text transform="matrix(1.1628 0 0 1 36 172.77)" fill="#FFFFFF" font-family="'CenturySchoolbook-Bold'" font-size="22">CONSTRUC FACTORY</text>
	<rect x="-55.5" y="-23.73" fill="none" width="450.5" height="263"/>
</g>
<g id="Capa_3">
</g>
<g id="Capa_4">
</g>
</svg>
