<?xml version="1.0" encoding="utf-8"?>
<!-- Generator: Adobe Illustrator 16.0.3, SVG Export Plug-In . SVG Version: 6.00 Build 0)  -->
<!DOCTYPE svg PUBLIC "-//W3C//DTD SVG 1.1//EN" "http://www.w3.org/Graphics/SVG/1.1/DTD/svg11.dtd">
<svg version="1.1" id="Capa_1" xmlns="http://www.w3.org/2000/svg" xmlns:xlink="http://www.w3.org/1999/xlink" x="0px" y="0px"
	 width="600px" height="900px" viewBox="0 0 600 900" enable-background="new 0 0 600 900" xml:space="preserve">
<path fill-rule="evenodd" clip-rule="evenodd" fill="#02070B" d="M524.941,138.811c1.672,8.051,4.314,15.833,6.617,23.708
	c8.43,28.805,16.895,57.601,25.396,86.386c0.493,1.672,0.445,2.897-0.66,4.412c-6.689,9.14-13.205,18.406-19.855,27.574
	c-0.855,1.181-1.142,2.322-1.024,3.693c0.688,8.157,1.354,16.316,2.044,24.473c0.19,2.278,0.13,4.493-1.593,6.253
	c-0.948,0.968-1.079,2.093-1.086,3.371c-0.184,31.884-0.346,63.768-0.689,95.649c-0.029,2.768,1.078,3.396,3.293,3.79
	c5.4,0.961,10.705,2.287,15.87,4.193c6.866,2.535,10.919,7.934,11.052,15.207c0.044,2.344,0.318,4.731-0.48,7.019
	c-0.385,1.104,0.188,1.995,0.563,2.91c2.897,7.057,2.241,13.728-2.077,20.035c-0.478,0.7-1.24,1.179-0.799,2.393
	c2.103,5.779,0.856,11.226-1.987,16.436c-0.902,1.654-1.25,3.396-1.285,5.274c-0.083,4.351-1.704,8.165-4.577,11.374
	c-4.841,5.41-10.499,9.609-17.756,11.244c-1.602,0.36-2.563,0.989-2.407,3.01c0.221,2.852,0.046,5.739-0.079,8.605
	c-0.052,1.187-2.668,16.528,9.556,16.401c10.398-0.108,14.716,6.245,16.613,6.245c3.127,0,4.613-5.117,9.996-5.271
	c9.431-0.074,11.436-0.115,20.869-0.132c3.38-0.007,6.021,2.542,7.309,6.762c1.57,5.149-0.43,11.291-4.961,13.965
	c-1.694,1.001-2.1,2.013-2.094,3.791c0.062,23.375,0.467,46.755,0.084,70.126c-0.186,11.313,2.275,11.723-18.822,11.568
	c-3.232-0.023-6.229-5.615-8.332-5.538c-2.049,0.076-4.126,5.23-7.895,5.204c-2.317-0.016-13.897,0.04-19.227,0.257
	c-4.383,0.178-4.337,4.097-4.348,4.95c-0.374,29.318-0.76,49.521-1.065,78.84c-0.033,3.189-0.894,4.051-4.049,3.93
	c-6.757-0.258-13.532-0.157-20.298-0.029c-2.129,0.04-2.909-0.25-2.873-2.738c0.438-30.035,0.682-60.072,1.115-90.108
	c0.04-2.854-0.506-3.954-3.578-3.845c-7.065,0.252-14.11-0.677-21.189-0.689c-2.79-0.004-3.727,0.955-4.612,3.382
	c-4.635,12.733-11.849,14.829-19.239,26.228c-15.9,24.521-84.41,67.811-86.597,67.812c-67.965,0.031-217.144-0.266-285.12-0.266
	c-0.555-0.978,0.458-1.211,0.88-1.645c13.5-13.899,26.98-27.815,40.584-41.612c1.685-1.709,1.502-2.545-0.106-4.019
	c-7.725-7.072-14.828-14.677-19.771-24.048c-1.47-2.787-2.835-5.607-3.387-8.744c-0.304-1.727-1.455-2.871-2.689-3.964
	c-10.812-9.563-21.923-18.766-33.105-27.894c-18.594-15.177-36.522-31.008-48.767-52.152c-3.359-5.8-6.113-11.877-8.946-17.934
	c-4.431-9.475-3.328-18.74,0.263-28.104c4.163-10.85,10.398-20.466,17.305-29.701c3.986-5.33,6.872-11.014,8.431-17.661
	c3.25-13.866,12.079-24.282,22.6-33.382c2.237-1.935,4.547-3.85,7.062-5.38c1.932-1.176,2.468-2.755,2.717-4.728
	c2.34-18.493,11.4-33.382,25.111-45.508c10.25-9.063,22.308-14.79,35.827-17.273c1.305-0.239,2.629-0.438,3.95-0.491
	c5.789-0.229,11.19-0.558,15.816-5.347c3.147-3.256,8.358-2.869,12.87-2.368c1.577,0.176,2.692-0.168,3.957-0.955
	c4.999-3.115,9.87-6.466,15.93-7.396c2.772-0.424,5.475-0.593,8.189,0.062c2.133,0.515,3.541-0.087,4.894-1.945
	c4.048-5.563,7.312-11.482,9.232-18.105c0.162-0.556,0.191-1.15,0.327-2.027c-6.763,3.175-13.467,5.091-21.028,4.383
	c7.935-6.569,13.63-14.382,17.714-23.414c0.892-1.97,1.008-3.77,0.1-5.826c-2.696-6.109-4.586-12.49-6.07-19.196
	c-4.251,23.779-15.222,43.302-35.887,56.34c-20.931,13.205-43.046,14.621-66.822,5.111c2.865-0.453,4.895-0.626,6.849-1.104
	c11.969-2.922,20.505-10.56,27.387-20.313c7.478-10.595,11.234-22.68,13.705-35.242c2.507-12.746,3.557-25.678,4.974-38.565
	c3.634-33.032,16.608-61.617,41.35-84.193c16.763-15.296,36.43-25.004,59.005-28.675c15.201-2.472,37.944-1.656,57.264,1.921
	c22.235,4.118,40.14,11.289,40.14,11.289s-22.228,37.242-29.645,54.963c-0.402,0.962-2.084,2.223-0.207,3.424
	c1.665,1.064,2.899,2.978,5.524,1.311c4.001-2.542,8.311-4.603,12.567-6.911c5.422,14.052,8.938,28.421,11.397,43.045
	c4.596,27.354,4.92,55.007,5.589,83.158c-6.645-3.02-13.011-5.913-19.7-8.952c0.246,10.066-0.218,19.767-0.586,29.472
	c-0.459,12.187-1.004,24.371-1.306,36.562c-0.071,2.891-1.085,2.607-2.986,1.677c-7.741-3.785-15.499-7.527-23.37-11.341
	c0.82,3.095,1.686,6.183,2.437,9.298c0.282,1.167,1.137,1.304,2.025,1.541c6.313,1.681,12.233,4.29,17.808,7.668
	c1.4,0.85,2.798,1.224,4.369,0.951c24.057-4.172,47.201,10.789,57.721,32.077c1.929,3.91,3.697,7.906,5.334,11.946
	c0.399,0.991,5.307,16.683,20.854,27.746c11.688,8.317,33.738,11.014,40.247,19.578c1.162,1.528,2.086,1.69,3.765,0.78
	c9.049-4.904,17.936-10.05,25.998-16.508c1.221-0.979,1.947-2.01,1.544-3.637c-0.729-2.95-0.402-6.084-3.08-8.57
	c-2.266-2.104-2.858-5.453-2.97-8.49c-0.337-9.113-0.271-18.227,0.629-27.327c0.424-4.299,3.5-6.61,6.314-8.995
	c5.898-5,12.594-7.31,20.404-5.063c3.37,0.971,6.159-1.176,6.207-4.647c0.362-26.14,0.691-52.279,1.045-78.419
	c0.051-3.69,0.156-7.38,0.285-11.068c0.096-2.74,0.336-5.44-1.751-7.744c-1.01-1.116-0.785-2.717-0.683-4.139
	c0.615-8.469,1.235-16.938,1.938-25.4c0.134-1.634-0.251-2.898-1.207-4.246c-6.258-8.815-12.377-17.728-18.646-26.535
	c-1.408-1.979-1.785-3.692-1.025-6.142c11.031-35.652,21.938-71.342,32.855-107.027c0.202-0.661,0.186-1.388,0.271-2.083
	C523.302,138.811,524.121,138.811,524.941,138.811z M134.946,519.37c-7.784,8.029-16.483,13.773-26.441,17.551
	c-1.919,0.727-0.736,1.704-0.392,2.501c4.527,10.479,6.713,21.509,7.708,32.806c0.281,3.178,0.712,6.179,2.401,9.041
	c6.938,11.766,15.349,22.391,24.544,32.439c0.526,0.574,1.132,1.031,1.78,1.08c4.807,0.352,9.622,0.607,14.649,0.906
	c-7.095-16.496-4.876-37.867,1.068-51.08c1.365-3.034,0.529-4.298-1.646-5.992c-5.028-3.92-9.466-8.468-13.173-13.667
	C140.064,537.401,136.486,529.061,134.946,519.37z M506.749,524.706c-5.036,6.685-10.286,12.559-14.844,19.539
	c1.477-0.088,2.293-0.224,3.1-0.166c2.889,0.203,4.602-0.9,5.39-3.863c0.704-2.641,2.287-4.974,4.026-7.079
	C506.328,530.826,507.403,528.364,506.749,524.706z"/>
<path fill-rule="evenodd" clip-rule="evenodd" fill="#D69700" d="M20.717,535.806c0.149-5.384,4.088-9.893,6.416-14.738
	c3.217-6.701,6.822-13.063,11.802-18.604c1.334,1.403,2.739,4.793,3.265,6.076c0.116,0.284,0.809,1.951,1.047-0.06
	c1.15-9.746,4.033-19.03,7.111-28.313c2.803-8.449,7.889-15.194,14.5-20.729c1.113-0.932,5.242-4.844,5.458-5.071
	c0,0-0.5,1.372,1.73,5.371c2.397,4.298,3.666,5.979,3.876,7.151c0,0-4.713,4.787-4.928,5.07
	c-2.752,3.993-12.209,20.542-11.253,23.082c1.876-0.511,7.733-8.039,9.875-10.189c0.866-0.871,1.922-2.377,3.178-1.573
	c1.012,0.647-2.286,13.142-2.286,17.296c0,3.307,1.209,6.637,2.655,9.213c0.824-2.277,7.532-18.024,7.593-18.561
	c4.893-8.809,12.209-14.875,21.43-18.68c2.517-1.038,5.291-0.444,7.888-0.11c6.499,0.837,26.932,1.088,27.901,1.069
	c6.467-0.13,6.133,0.178,5.543,1.844c-2.324,11.569-19.721,35.492-21.487,37.583c-6.712,7.943-16.236,12.019-26.753,12.87
	c-3.604,0.293-7.135-0.906-10.178-2.799c-1.497-0.93-3.081-1.22-4.898-1.664c1.237,1.78,2.464,3.567,3.713,5.338
	c3.598,5.101,7.129,10.246,10.823,15.273c3.925,5.335,6.47,11.112,6.878,17.816c0.225,3.691,1.861,11.594,2.062,12.109
	c0.636,1.627,0.017,1.533-1.931,2.673c-0.253,0.147-4.913,2.815-6.116,3.841c-4.022,3.43-8.491,6.278-12.774,9.364
	c-3.244,2.339-5.768,5.721-8.438,8.786c-1.91,2.191-1.782,1.782-3.657,0.172c-5.809-4.861-15.66-16.819-15.649-17.021
	c0.173-0.028,1.335,1.365,9.525,4.921c1.22,0.529,3.115,1.559,4.191,1.531c-1.173-2.28-6.716-8.48-9.804-11.946
	c-3.744-4.2-7.136-8.334-10.249-12.95c-3.892-5.768-14.553-21.944-16.676-23.547c-0.847,2.455-0.416,9.261,0.93,15.145
	c0.929,4.059,3.566,11.821,3.566,11.821s-3.688-2.993-5.336-5.259c-4.331-5.955-8.807-11.901-9.569-14.467
	C21.034,542.741,20.629,538.92,20.717,535.806z M88.861,562.289c0.192-0.521,0.352-0.726,0.313-0.882
	c-0.225-0.889-0.475-1.771-0.753-2.645c-5.63-17.652-18.919-28.919-32.956-39.574c-1.346-1.023-1.76-0.165-2.197,0.848
	c-1.598,3.699-2.406,7.582-2.504,11.596c-0.066,2.688,1.615,3.994,3.999,4.724c4.649,1.423,8.878,3.752,12.656,6.735
	c4.004,3.16,7.757,6.645,11.556,10.056C82.28,556.113,85.502,559.177,88.861,562.289z"/>
<path fill-rule="evenodd" clip-rule="evenodd" fill="#990510" d="M189.315,251.309c0,0-13.862,1.433-19.948,2.032
	c-0.945,0.094-1.957,0.073-2.133,1.272c-0.186,1.261,0.985,1.445,1.76,1.795c4.415,2,12.147,3.397,16.86,4.313
	c1.157,0.226,1.097,2.321-0.05,3.025c-3.907,2.398-9.619,5.762-13.574,8.081c-0.704,0.412-1.42,0.803-2.131,1.201
	c-0.66,0.368-1.271,0.846-1.075,1.67c0.22,0.927,1.097,0.827,1.779,0.765c3.843-0.346,7.683-0.741,12.13-1.179
	c-8.037,22.239-17.803,42.854-37.802,56.891c1.112-3.106,2.289-6.192,3.324-9.325c3.345-10.117,4.989-20.575,6.328-31.111
	c1.851-14.555,2.567-29.274,5.615-43.652c2.721-12.835,7.167-25.091,13.944-36.438c5.001-8.375,10.734-16.146,17.733-22.968
	c8.865-8.644,18.961-15.414,30.219-20.595c8.517-3.918,17.382-6.777,26.546-8.239c11.378-1.814,22.836-2.639,34.479-1.712
	c11.59,0.924,22.798,3.202,33.896,6.388c0.197,0.056,4.447,1.328,4.447,1.328l-17.727,38.782l-4.709-2.057
	c0,0,3.686-21.915,4.322-26.059c0.164-1.061,0.229-2.605-0.775-2.969c-0.824-0.299-1.726,1.183-2.09,2.165
	c-0.988,2.676-8.981,24.273-8.981,24.273l-5.999-1.691c0,0-0.211-28.155-0.405-30.186c-0.056-0.59-0.096-1.288-0.886-1.447
	c-0.688-0.14-0.893,0.69-1.021,1.319c-1.659,8.088-6.006,28.865-6.006,28.865l-5.999-0.577c0,0-4.026-19.987-5.826-28.468
	c-0.172-0.81-0.752-1.881-1.446-1.834c-0.919,0.063-1.053,1.257-1.088,2.231c-0.289,6.023-1.163,28.16-1.163,28.16l-6.124,0.303
	c0,0-5.999-18.516-8.509-25.958c-0.23-0.904-0.614-1.73-1.367-1.554c-0.673,0.158-0.661,1.073-0.654,1.69
	c0.084,8.493,0.238,27.988,0.238,27.988l-3.568,0.831c0,0-8.421-13.354-10.436-16.568c-1.196-1.908-2.368-3.829-3.554-5.744
	c-0.332-0.538-0.919-1.011-1.641-0.773c-0.635,0.209-0.968,1.045-0.846,1.635c0.338,1.651,6.839,25.827,6.839,25.827l-3.347,1.73
	c0,0-14.924-15.381-18.003-18.419c-0.636-0.629-1.479-1.827-2.695-0.786c-0.979,0.839-0.294,1.833,0.08,2.581
	c3.292,6.584,11.024,21.411,11.024,21.411l-2.986,2.889c0,0-16.081-10.515-19.719-12.904c-0.953-0.626-2.076-1.369-3.022-0.26
	c-0.78,0.917,0.047,1.971,0.552,2.655c4.071,5.504,14.731,18.931,14.731,18.931l-3.597,3.829c0,0-15.569-7.445-21.798-10.557
	c-0.79-0.396-1.794-1.23-2.713-0.269c-0.984,1.031,0.905,2.398,1.636,3.139c4.608,4.672,16.074,15.177,16.074,15.177l-2.691,6.076
	c0,0-15.299-3.681-21.326-4.723c-0.794-0.137-1.691-0.677-2.127,0.381c-0.436,1.06,0.575,1.385,1.254,1.772
	c4.798,2.733,18.099,10.333,18.099,10.333"/>
<path fill-rule="evenodd" clip-rule="evenodd" fill="#D69700" d="M315.914,380.6c-6.813-3.188-13.406-6.797-20.071-10.27
	c-13.473-7.016-26.168-15.151-38.344-24.148c-3.251-2.401-12.668-10.926-13.989-12.29c-0.372-0.384,2.336-22.394,3.123-30.5
	c0.246-2.556-0.773-7.556-1.312-8.181c-1.352-1.569-3.244-4.034-4.042-5.929c-1.01-2.402,0.307-4.224,1.58-5.799
	c1.195-1.477,3.115-0.89,4.555-0.104c2.655,1.444,2.587,0.04,2.478-1.972c-0.259-4.729-7.722-9.777-8.092-9.712
	c-6.94,1.215-13.182,8.575-13.784,15.693c-0.552,6.535,5.4,16.043,5.414,18.03c-10.769-5.656-14.277-19.762-6.925-30.527
	c2.144-3.14,4.851-5.604,8.41-6.903c6.896-2.519,19.926-7.008,20.784-7.292c0.201-0.066,1.398-0.468,3.079-0.771
	c1.47-0.265,17.446-3.702,23.452-5.164c12.78-3.111,39.18-14.688,39.18-14.688s3.764,19.333,5.084,26.061
	c0.789,4.018,1.56,8.04,1.809,12.608c-1.395-0.762-2.271-1.257-3.163-1.726c-6.69-3.519-25.687-11.744-25.687-11.744
	s1.514,1.365,2.12,1.905c8.64,6.379,17.434,12.871,26.093,19.224c1.104,0.81,2.02,1.673,2.35,3.083
	c1.21,5.168,3.47,17.6,4.523,22.861c-1.916-5.052-2.886-9.827-4.255-14.75c-1.256-4.511-2.881-8.071-7.385-10.499
	c-8.962-4.83-17.268-10.842-26.612-15.037c-0.693-0.31-3.233-0.828-5.665-0.48c-2.692,0.385-16.099,4.973-19.072,6.127
	c0.761,0.513,0.985,2.666,1.305,3.722c4.718,15.517,14.862,26.026,29.803,31.992c1.75,0.699,2.802,1.482,2.802,3.426
	c-0.004,6.136,0.647,12.233,1.384,18.306c1.238,10.21,1.99,20.484,4.624,30.513C312.789,370.703,314.773,375.522,315.914,380.6z
	 M257.624,310.397c-1.004,5.065-1.66,10.263-1.559,15.451c-0.007,1.833-0.134,4.782,0.214,6.58c0.196,1.009,6.676,5.76,9.492,7.792
	c5.457,3.937,11.154,7.661,16.878,11.265c0.925,0.582,2.539,1.349,3.558,1.293c-1.223-1.069-7.171-7.058-9.225-9.569
	c-6.035-7.377-10.82-14.81-13.861-23.526c-1.69-4.842-3.322-9.776-3.411-15.874C259.71,303.81,257.959,308.703,257.624,310.397z"/>
<path fill-rule="evenodd" clip-rule="evenodd" fill="#D69700" d="M294.106,460.696c-8.6,4.894-16.401,10.945-24.17,17.003
	c-3.021,2.355-5.466,5.468-8.075,8.325c-1.504,1.646-3.272,2.382-5.445,2.231c-12.919-0.896-25.015-4.492-35.984-11.425
	c-5.242-3.314-10.06-7.225-13.738-12.342c-0.21-0.297-5.892-9.633-6.831-11.841c-3.771-8.862-1.103-17.565,2.552-25.934
	c2.117-0.014,4.224,0.361,6.351,0.152c2.516-0.248,6.762-0.625,12.29-2.772c6.793-2.641,10.779-4.007,13.343-7.736
	c0.845-1.23,1.8-6.287,1.8-6.287c5.403-0.917,10.172,0.238,18.785,3.108c5.916,1.972,19.594,7.565,23.661,10.392
	c-9.723-1.16-19.439-1.549-29.226,0.067c0.296,1.129,1.098,1.443,1.762,1.873c12.048,7.784,23.654,16.162,34.281,25.818
	C288.602,454.185,292.17,456.706,294.106,460.696z"/>
<path fill-rule="evenodd" clip-rule="evenodd" fill="#D69700" d="M103.738,434.905c0,0-4.806,7.45-12.599,21.695
	c-1.071,0.012-2.103-2.437-2.379-3.459c-1.292-4.785-2.257-10.032-2.544-14.982c-0.311-5.375,1.34-10.522,3.504-15.489
	c5.459-12.523,14.813-21.466,26.524-27.799c4.931-2.667,10.103-5.581,16.007-6.683c6.806-1.268,9.959-0.594,14.656,0.23
	c5.087,0.892,8.723,1.771,15.67,5.052c4.098,1.935,7.922,3.974,11.562,8.588c3.236,4.103,7.117,17.484,7.178,24.76
	c0.058,6.747-3.468,9.474-7.144,13.5c-3.904,4.275-7.805,8.402-12.786,11.294c-10.659,6.191-22.093,10.048-34.454,11.143
	c-6.553,0.58-12.679,0.587-19.227,0.094c-2.847-0.215-4.779-2.097-4.91-3.433c-0.359-3.64-1.282-11.247-0.77-15.521
	C102.705,438.243,103.738,434.905,103.738,434.905z M121.472,432.649c1.733-0.89,2.824-1.427,3.894-2.004
	c8.295-4.475,16.632-8.869,25.293-12.606c3.855-1.663,7.783-3.162,11.591-4.923c2.031-0.94,4.213-2.174,4.31-4.756
	c0.176-4.75-5.924-9.846-10.646-8.798c-9.856,2.186-19.082,5.556-25.196,14.41C126.881,419.525,123.101,425.078,121.472,432.649z
	 M96.321,442.944c6.365-9.906,12.869-19.261,20.432-27.83c7.68-8.702,17.101-15.359,27.058-22.454
	C121.008,393.302,94.73,416.425,96.321,442.944z"/>
<path fill-rule="evenodd" clip-rule="evenodd" fill="#D69700" d="M159.842,670.384c1.631,5.801-3.047,8.273-7.241,8.098
	c-1.621-0.067-3.019-0.35-3.352,2.126c-0.27,2.009-2.181,2.521-4.129,2.089c-2.324-0.514-4.364-1.66-6.285-3.007
	c-9.813-6.875-25.992-28.357-26.243-28.679c-0.577-0.741-0.474-0.949-0.08-1.813c0.387-0.846,2.391-4.958,2.585-5.476
	c3.126-8.429,10.715-13.671,18.538-17.989c2.036-1.126,3.418,0.848,5.381,0.836c7.425-0.044,14.841,0.915,22.287,0.801
	c1.251-0.02,2.081,0.424,2.861,1.361c4.493,5.404,9.115,10.707,13.525,16.178c2.573,3.192,4.181,6.746,2.736,11.067
	c-0.514,1.564-1.999,1.552-4.148,0.95c-2.788-0.782-6.889-3.252-7.021-3.098c-0.16,0.185,2.67,3.974,3.105,5.488
	c0.464,1.605,0.263,4.896-0.616,6.248c-1.53,2.354-7.656,3.004-11.021,2.162C159.654,667.46,159.043,667.534,159.842,670.384z"/>
<path fill-rule="evenodd" clip-rule="evenodd" fill="#D69700" d="M511.804,502.291c-2.705-0.112-5.854-0.786-6.931-3.69
	c-0.353-0.953-0.038-5.448,2.289-5.896c14.344,0.615,22.853-1.057,25.867-1.23c0.954-0.056,2.006-0.262,1.974-1.154
	c-0.036-0.986-1.264-1.082-1.907-1.169c-8.068-1.08-16.141-2.12-24.191-3.31c-5.24-0.773-8.301-7.793-4.938-11.824
	c1.634-1.955,3.488-1.967,7.263-2.299c2.499-0.221,25.374,2.561,25.099-3.145c-0.063-1.306-7.001-2.193-11.17-2.684
	c-0.322-0.039-12.27-0.979-12.98-0.969c-7.369,0.115-10.617-4.738-7.836-11.709c1.189-2.984,5.931-2.654,7.656-2.738
	c4.547-0.223,26.998-0.075,27.18-2.078c0.132-1.451-8.135-1.838-12.188-2.418c-6.03-0.867-12.073-2.059-18.229-1.387
	c-1.558,0.17-2.25-0.635-2.584-1.957c-1.241-4.916-1.063-9.607,2.382-13.692c1.045-1.24,2.479-1.851,4.104-1.582
	c1.565,0.26,3.1,0.712,4.647,1.079c-1.704,3.45-0.974,6.485,2.121,7.479c2.88,0.926,5.872,1.6,8.929,1.77
	c7.91,0.442,15.821,0.862,23.731,1.291c1.023,3.018-0.455,5.546-1.606,8.129c-0.455,1.023-0.937,1.786,0.125,2.962
	c4.618,5.113-2.237,16.576-3.673,19.345c2.569,4.854,3.461,13.71,0.203,17.017c-0.412,0.287-0.233,0.139-2.613,2.557
	c0,0,1.739,6.008,1.133,7.873c-0.196,0.602-0.826,2.682-3.401,4.009C537.387,503.377,515.508,502.446,511.804,502.291z"/>
<path fill-rule="evenodd" clip-rule="evenodd" fill="#D69700" d="M201.349,359.215c-0.034-0.406,4.629-3.339,5.724-3.715
	c0.77-0.394,0.125,1.952,11.903,9.686c0.478,0.313,1.36,0.556,1.656,0.455c0.253-0.087,0.332-1.655,0.292-1.901
	c-2.112-13.046-0.433-25.589-0.433-32.665c0.794,0.66,20.868,30.312,27.674,43.76c3.062,6.048,6.608,11.79,10.551,17.291
	c1.459,2.038,3.841,2.891,5.887,4.691c0.278-4.784-5.826-25.745-6.157-28.063c1.202,1.128,2.432,2.228,3.604,3.388
	c3.855,3.817,7.78,7.56,12.088,10.869c2.011,1.545,2.968,3.393,2.912,6.018c-0.119,5.72,0.219,11.453-0.789,17.546
	c-4.568-2.791-11.219-7.122-14.587-8.891c-2.497-1.311-8.747-4.063-10.233-4.732c-6.283-2.828-12.869-5.379-19.707-6.135
	c-6.786-0.75-7.577-6.733-17.383-16.075C208.255,364.935,201.403,359.844,201.349,359.215z"/>
<path fill-rule="evenodd" clip-rule="evenodd" fill="#D69700" d="M280.844,236.977c-0.754-4.205-3.826-6.652-6.886-8.884
	c-4.191-3.781-9.284-5.49-12.746-5.989c-2.71-0.391-5.228-0.135-7.877,0.554c-1.353,0.352-4.873,1.61-7.357,2.691
	c-4.025,1.753-8.117,4.034-9.472,5.123c-11.491,9.236-18.607,22.452-22.381,36.516c-0.083,0.313-0.308,1.615-0.308,1.615
	s1.163-0.308,2.604-1.694c1.53-1.473,2.867-3.262,4.527-4.449c0,0,6.641-6.876,13.363-10.45c8.103-4.307,13.035-5.89,19.792-7.947
	C262.345,241.555,280.844,236.977,280.844,236.977z"/>
<path fill-rule="evenodd" clip-rule="evenodd" fill="#B68C3F" d="M252.986,242.719"/>
<path fill-rule="evenodd" clip-rule="evenodd" fill="#D69700" d="M524.223,221.649c-0.518,5.717-3.15,44.483-3.439,51.849
	c-1.423-1.933-17.953-30.18-19.012-32.02c3.602-12.018,21.667-76.934,21.972-77.675
	C523.849,166.072,524.087,204.659,524.223,221.649z"/>
<path fill-rule="evenodd" clip-rule="evenodd" fill="#E6CB87" d="M524.277,221.553c-0.055-16.971-0.67-56.678-0.479-57.75
	c0.848,3.047,20.017,70.99,22.528,79.231c-2.387,3.995-16.29,27.601-18.248,30.745C527.828,266.392,524.277,221.553,524.277,221.553
	z"/>
<path fill-rule="evenodd" clip-rule="evenodd" fill="#E6CB87" d="M325.14,277.016c0.892,0.469,1.769,0.963,3.163,1.726
	c-0.249-4.568-1.02-8.59-1.809-12.608c-1.289-6.566-5.103-25.978-5.103-25.978s-2.06,0.846-2.401,0.985
	c-12.107,4.923-23.979,10.508-36.76,13.619c-7.8,1.899-15.603,3.784-23.514,5.175c3.967-2.651,8.646-3.636,12.953-5.491
	c4.814-2.073,9.883-3.695,14.555-5.939c4.502-2.164,9.002-4.502,13.431-6.898c8.711-4.715,17.546-9.202,26.116-14.81
	c11.422,31.056,10.471,63.484,12.171,96.458c-1.638-4.071-2.558-7.479-3.404-10.911c-0.716-3.677-3.313-17.692-4.522-22.861
	c-0.33-1.41-1.246-2.273-2.35-3.083c-8.659-6.353-17.303-12.729-25.941-19.108c-0.678-0.563-1.551-1.38-2.271-2.021
	C302.374,266.461,317,272.735,325.14,277.016z"/>
<path fill-rule="evenodd" clip-rule="evenodd" fill="#02027D" d="M129.324,616.798c-0.325,0.922-0.921,1.314-1.552,1.667
	c-6.002,3.343-11.525,7.354-16.574,12c-1.178,1.083-1.913,0.748-2.784-0.238c-7.908-8.959-15.638-18.081-24.101-26.534
	c-1.133-1.132-0.481-2.026,0.03-3.006c1.946-3.723,4.977-6.504,8.344-8.814c3.176-2.177,6.319-4.5,10.042-5.785
	c1.531-0.529,2.491-0.781,3.632,1.112c5.816,9.653,13.067,18.229,20.619,26.56C127.861,614.729,128.591,615.839,129.324,616.798z"/>
<path fill-rule="evenodd" clip-rule="evenodd" fill="#D69700" d="M348.235,444.942c-1.312,0.101-1.517,0.126-2.632,0.373
	c-0.099,0.021-28.881,5.035-31.954,6.076c-1.425,0.482-1.552-0.37-1.816-1.275c-1.863-6.388-4.727-12.301-8.069-18.056
	c-3.86-6.644,0.729-13.392,8.729-13.315c4.359,0.041,8.597-0.007,13.093,0.343c2.22,0.173,3.931,0.399,7.824,1.73
	c3.374,1.154,5.644,3.178,8.036,5.857c-0.108,0.59-0.444,0.925-1.054,0.756c-3.802-1.047-7.474-0.41-11.119,0.784
	c-0.76,0.25-1.756,0.214-1.895,1.209c-0.119,0.862,0.774,1.08,1.364,1.446c2.509,1.567,5.083,3.042,7.517,4.72
	C340.432,438.469,345.137,440.683,348.235,444.942z"/>
<path fill-rule="evenodd" clip-rule="evenodd" fill="#E6CB87" d="M294.113,460.692c-1.938-3.99-5.505-6.512-8.645-9.365
	c-10.627-9.657-22.233-18.036-34.281-25.819c-0.664-0.428-1.467-0.744-1.762-1.873c9.784-1.616,19.5-1.227,29.223-0.067
	c7.814,4.144,14.73,9.175,18.061,17.874c1.71,4.465,3.54,8.883,5.354,13.307c0.535,1.304,0.493,2.158-1.042,2.77
	C298.67,458.455,296.411,459.622,294.113,460.692z"/>
<path fill-rule="evenodd" clip-rule="evenodd" fill="#02027D" d="M199.865,392.294c-4.226-7.665-9.357-14.562-16.604-19.678
	c-0.413-0.293-0.817-0.608-1.186-0.954c-0.119-0.114-0.115-0.361-0.256-0.862c4.175-0.147,7.939,1.264,11.41,2.934
	c7.516,3.616,14.042,8.617,18.391,15.941c2.434,4.097,4.482,8.37,1.987,13.26c-0.72,1.412-1.731,2.392-3.278,3.02
	c-8.135,3.302-14.643,0.087-20.252-5.389c-7.177-7.008-14.377-13.945-22.737-19.557c-1.387-0.931-2.795-1.831-4.091-3.044
	c4.123-0.562,8.055,0.389,11.903,1.36c8.556,2.158,15.703,7.113,22.826,12.048c0.594,0.41,1.091,0.933,1.871,0.935
	c0.092,0.045,0.184,0.091,0.276,0.136C200.038,392.393,199.952,392.344,199.865,392.294z"/>
<path fill-rule="evenodd" clip-rule="evenodd" fill="#E6CB87" d="M315.914,380.6c-1.141-5.078-3.125-9.897-4.447-14.935
	c-2.634-10.029-3.386-20.303-4.624-30.513c-0.736-6.073-1.388-12.17-1.384-18.306c0-1.944-1.052-2.728-2.802-3.426
	c-14.94-5.966-25.085-16.476-29.803-31.992c-0.472-1.568-0.629-2.03-0.806-3.028c1.604,0.604,3.131,1.751,3.863,3.081
	c2.03,3.697,5.299,6.339,8.076,9.283c3.368,3.567,7.778,6.161,11.787,9.109c4.309,3.167,9.166,5.343,14.007,7.539
	c1.173,0.532,1.847,0.975,2.135,2.712c1.256,7.571,1.176,15.206,1.813,22.792c1.019,12.11,1.755,24.232,2.595,36.351
	c0.241,3.472,0.246,6.96,0.346,10.441C316.685,380.197,316.738,380.788,315.914,380.6z"/>
<path fill-rule="evenodd" clip-rule="evenodd" fill="#D69700" d="M266.164,204.556c2.182,0.1,7.002,0.282,12.048,1.328
	c5.691,1.18,13.143,3.574,16.618,4.78c-3.925,3.007-7.429,4.495-12.521,2.935c-16.298-4.997-32.284-3.067-47.695,4.154
	c-8.924,4.181-15.513,10.886-21.976,18.228c-4.974,6.153-7.739,11.22-9.055,13.822c-0.409,0.809-3.072,7.098-5.217,9.414
	c5.122-18.165,13.338-33.976,29.39-44.617c2.411-1.599,13.477-7.339,21.232-8.663C256.964,204.573,262.016,204.366,266.164,204.556z
	"/>
<path fill-rule="evenodd" clip-rule="evenodd" fill="#02027D" d="M521.52,655.396c-1.054,25.751-0.529,51.514-0.523,77.272
	c0,1.285-0.26,1.63-1.43,1.562c-0.918-0.052-1.852-0.09-2.765,0.004c-1.944,0.2-2.775-0.472-2.686-2.56
	c1.058-24.728,0.382-49.473,0.776-74.206c0.07-4.359,0.468-8.758,0.44-13.143c-0.011-1.943,0.743-2.535,2.546-2.402
	c1.703,0.129,3.683-0.366,3.651,2.408C521.488,648.018,521.52,651.707,521.52,655.396z"/>
<path fill-rule="evenodd" clip-rule="evenodd" fill="#02027D" d="M524.689,413.248c0.033,2.918,0.034,2.975-2.953,2.918
	c-3.098-0.059-3.286-0.055-3.244-3.19c0.097-7.356,1.166-84.027,1.232-89.391c0.027-2.116,0.047-2.126,2.839-2.11
	c2.777,0.017,2.786-0.002,2.776,2.163C525.229,328.761,524.732,388.501,524.689,413.248z"/>
<path fill-rule="evenodd" clip-rule="evenodd" fill="#D69700" d="M495.524,441.976c0.161,5.353-1.384,9.625-4.481,14.059
	c-0.948,1.359-2.111,2.433-3.82,1.854c-1.65-0.561-3.348-1.535-3.38-3.531c-0.112-6.924-0.299-13.807,0.745-20.756
	c0.891-5.914,4.364-7.595,9.336-8.483c2.011-0.36,2.664,0.688,2.604,2.076C496.414,429.715,495.396,441.705,495.524,441.976z"/>
<path fill-rule="evenodd" clip-rule="evenodd" fill="#E6CB87" d="M348.235,444.942c-3.099-4.259-7.804-6.473-11.976-9.352
	c-2.434-1.678-5.008-3.153-7.517-4.72c-0.59-0.366-1.483-0.584-1.364-1.446c0.139-0.995,1.135-0.959,1.895-1.209
	c3.646-1.194,7.317-1.831,11.119-0.784c0.609,0.168,0.945-0.166,1.054-0.756c2.632,2.67,5.058,5.588,7.942,7.949
	c3.601,2.944,6.062,6.781,9.314,10.318C355.016,444.942,351.625,444.942,348.235,444.942z"/>
<path fill-rule="evenodd" clip-rule="evenodd" fill="#E6CB87" d="M299.607,231.477c-3.808-8.729-18.287-10.294-24.175-10.754
	c-3.114-0.244-16.084-0.164-21.058,1.688c3.626-0.7,8.133,0.055,9.99,0.599c4.095,1.2,7.696,4.113,10.718,6.315
	c3.06,2.231,4.452,3.69,5.761,7.652L299.607,231.477z"/>
<path fill-rule="evenodd" clip-rule="evenodd" fill="#D69700" d="M376.539,436.076c1.934,2.607,3.304,5.513,4.763,8.738
	c-4.28-0.767-8.261-1.469-12.237-2.201c-0.757-0.139-1.202-0.716-1.558-1.365c-3.524-6.451-8.319-11.988-12.682-17.844
	c-1.989-2.668-5.557-6.162-6.466-7.473c-0.196-0.281-0.219-0.624,0.363-0.531c6.535,0.994,12.199,3.788,17.059,8.247
	c-1.37,0.893-2.155-0.429-3.102-0.901c-3.062-1.525-5.737-3.385-9.178-4.589c-0.293-0.103-0.514,0.061-0.288,0.373
	c0.329,0.369,0.613,0.793,0.993,1.1c6.01,4.832,12.401,9.187,17.969,14.573C373.334,435.321,374.797,436.124,376.539,436.076z"/>
<path fill-rule="evenodd" clip-rule="evenodd" fill="#E6CB87" d="M551.924,439.094c-7.91-0.429-15.82-0.85-23.73-1.291
	c-3.057-0.17-6.05-0.845-8.93-1.77c-3.094-0.995-3.825-4.03-2.119-7.48c6.58,0.586,12.966,2.295,19.461,3.373
	c2.919,0.484,5.803,1.185,8.725,1.629C548.708,434.065,550.935,435.809,551.924,439.094z"/>
<path fill-rule="evenodd" clip-rule="evenodd" fill="#D69700" d="M528.299,307.411c0,1.413-2.697,1.398-5.423,1.385
	c-4.035-0.02-5.813-0.052-5.812-1.216c0.005-1.523,0.783-10.255,0.851-14.012c0.036-1.993,0.046-2.52,1.22-2.519
	c0.504,0.001,6.674,0.11,7.176,0.135c1.535,0.077,1.535,0.682,1.528,2.633C527.791,296.314,528.299,305.307,528.299,307.411z"/>
<path fill-rule="evenodd" clip-rule="evenodd" fill="#D69700" d="M177.237,475.363c3.671,4.573,8.108,8.267,12.778,11.8
	c6.375,4.823,13.819,6.721,21.269,8.764c0.806,0.221,2.243-0.251,2.206,1.017c-0.038,1.341-1.582,1.458-2.562,1.525
	c-7.045,0.476-13.547-1.208-19.401-5.216c-6.061-4.146-10.768-9.496-14.144-16.017c-0.23-0.446-0.402-0.922-0.603-1.386
	C176.934,475.688,177.086,475.527,177.237,475.363z"/>
<path fill-rule="evenodd" clip-rule="evenodd" fill="#E6CB87" d="M536.22,472.521c1.154-0.174,0.78,1.629-1.402,2.269
	c-5.935,2.868-12.304,4.643-18.96,4.601c-5.046-0.031-6.368-2.488-4.295-7.245C517.884,471.712,533.494,472.929,536.22,472.521z"/>
<path fill-rule="evenodd" clip-rule="evenodd" fill="#02027D" d="M167.764,510.183c3.354,2.584,4.275,6.045,7.183,8.033
	c2.789,1.908,5.603,3.65,8.643,5.081c0.987,0.463,2.545,0.866,2.146,2.164c-0.327,1.063-1.719,1.444-3.033,1.657
	c-4.756,0.771-8.132-1.422-10.778-4.939C169.456,518.896,168.231,515.074,167.764,510.183z"/>
<path fill-rule="evenodd" clip-rule="evenodd" fill="#E6CB87" d="M376.477,436.039c-1.742,0.047-3.205-0.754-4.363-1.874
	c-5.566-5.387-11.961-9.741-17.969-14.574c-0.38-0.306-0.664-0.731-0.992-1.1c-0.074-0.109-0.266-0.562,0.287-0.373
	c3.298,1.126,6.117,3.064,9.178,4.589c0.946,0.472,1.731,1.795,3.102,0.902C370.354,426.846,373.752,431.151,376.477,436.039z"/>
<path fill-rule="evenodd" clip-rule="evenodd" fill="#E6CB87" d="M243.075,225.41"/>
<path fill-rule="evenodd" clip-rule="evenodd" fill="#B68C3F" d="M527.787,296.794"/>
<path fill-rule="evenodd" clip-rule="evenodd" fill="#E6CB87" d="M235.244,253.785"/>
<path fill-rule="evenodd" clip-rule="evenodd" fill="#E6CB87" d="M229.096,256.245"/>
<path fill-rule="evenodd" clip-rule="evenodd" fill="#E6CB87" d="M265.327,403.354"/>
<path fill-rule="evenodd" clip-rule="evenodd" fill="#E6CB87" d="M170.594,398.292"/>
<path fill-rule="evenodd" clip-rule="evenodd" fill="#E6CB87" d="M220.372,378.053"/>
<path fill-rule="evenodd" clip-rule="evenodd" fill="#E6CB87" d="M450.058,649.841"/>
<path fill-rule="evenodd" clip-rule="evenodd" fill="#E6CB87" d="M88.758,562.289c-3.359-3.112-6.579-6.176-9.886-9.143
	c-3.8-3.411-7.553-6.896-11.554-10.056c-3.78-2.983-8.01-5.313-12.658-6.735c-2.384-0.729-4.066-2.036-4-4.724
	c0.1-4.014,0.907-7.896,2.505-11.596c0.438-1.013,0.851-1.871,2.198-0.848c14.037,10.655,27.326,21.922,32.955,39.574
	c0.277,0.873,0.529,1.756,0.752,2.645C89.11,561.563,88.951,561.768,88.758,562.289z"/>
<path fill-rule="evenodd" clip-rule="evenodd" fill="#E6CB87" d="M121.472,432.625c1.629-7.571,5.409-13.122,9.245-18.68
	c6.114-8.852,15.34-12.223,25.196-14.408c4.722-1.048,10.821,4.049,10.646,8.798c-0.097,2.581-2.278,3.816-4.31,4.756
	c-3.808,1.762-7.735,3.261-11.591,4.923c-8.661,3.738-16.998,8.132-25.293,12.607C124.296,431.198,123.205,431.735,121.472,432.625z
	"/>
<path fill-rule="evenodd" clip-rule="evenodd" fill="#E6CB87" d="M96.321,442.901c-1.591-26.518,24.687-49.641,47.489-50.283
	c-9.957,7.095-19.378,13.752-27.058,22.454C109.19,423.641,102.687,432.995,96.321,442.901z"/>
<path fill-rule="evenodd" clip-rule="evenodd" fill="#E6CB87" d="M508.867,450.571c7.499,0.607,14.998,0.703,22.494-0.051
	c2.273-0.463,4.457,0.287,6.662,0.58c1.897,0.252,2.563,1.191,0.905,2.787c-1.109,1.068-2.229,2.086-3.686,2.676
	c-7.753,3.137-15.738,2.885-23.687,1.236C507.492,456.957,506.515,453.728,508.867,450.571z"/>
<path fill-rule="evenodd" clip-rule="evenodd" fill="#02070B" d="M490.266,571.851c0.269-0.189,0.536-0.378,0.805-0.568
	c0.125,0.908,0.186,1.83,0.381,2.723c1.572,7.098,3.151,14.195,4.782,21.278c0.249,1.081,0.719,2.019-1.036,2.038
	c-3.742,0.043-7.482,0.585-11.313,0.177C486.038,588.837,488.152,580.344,490.266,571.851z"/>
<path fill-rule="evenodd" clip-rule="evenodd" fill="#02070B" d="M203.211,392.807c0.087,0.05,0.176,0.099,0.262,0.149
	c-0.092-0.045-0.184-0.091-0.275-0.135L203.211,392.807z"/>
<circle fill-rule="evenodd" clip-rule="evenodd" fill="#E6CB87" cx="377.544" cy="602.285" r="148.241"/>
<circle fill-rule="evenodd" clip-rule="evenodd" fill="#D69700" cx="377.544" cy="602.285" r="139.521"/>
<circle fill-rule="evenodd" clip-rule="evenodd" fill="#02070B" cx="377.545" cy="603.153" r="130.802"/>
<path fill-rule="evenodd" clip-rule="evenodd" fill="#02027D" d="M482.657,602.286c0,58.642-47.537,106.18-106.178,106.18
	c-58.645,0-106.183-47.538-106.183-106.18c0-58.643,47.538-106.182,106.183-106.182C435.12,496.104,482.657,543.644,482.657,602.286
	z"/>
<path fill-rule="evenodd" clip-rule="evenodd" fill="#02070B" d="M227.211,603.153c0,20.82,3.065,39.767,10.813,57.746h275.715
	c7.747-17.979,14.535-37.793,14.535-58.612c0-20.821-3.459-40.702-11.209-58.683c0,0-0.818-14.328-10.477-14.328
	c-12.371,0-16.115,18.949-26.215,19.189c-81.782,1.951-242.35-4.793-242.35-4.793C230.276,561.651,227.211,582.331,227.211,603.153z
	"/>
<g>
	<g>
		<path fill="#D69700" d="M213.193,547.523h2.705l1.372,37.48h-3.353c-1.804-11.203-4.248-19.289-7.334-24.258
			c-3.086-4.967-6.521-7.451-10.306-7.451c-2.896,0-5.53,1.437-7.905,4.309c-2.375,2.875-4.235,7.363-5.581,13.467
			c-1.347,6.105-2.02,14.439-2.02,25c0,11.872,0.559,20.702,1.674,26.49c1.116,5.788,2.815,10.086,5.099,12.896
			c2.282,2.811,4.907,4.214,7.875,4.214c3.905,0,6.962-1.838,9.169-5.517c2.206-3.679,3.31-8.562,3.31-14.649v-8.563
			c0-1.563-0.248-2.736-0.743-3.52c-0.495-0.781-1.213-1.173-2.152-1.173h-5.905v-5.771h27.277v5.771h-3.429
			c-1.219,0-2.102,0.412-2.647,1.237c-0.547,0.824-0.819,1.977-0.819,3.455v34.564h-2.972l-4.762-15.792
			c-2.134,5.497-4.616,9.513-7.448,12.05s-6.166,3.805-10,3.805c-5.105,0-9.753-2.027-13.944-6.084
			c-4.19-4.056-7.429-9.611-9.715-16.668c-2.285-7.056-3.429-15.527-3.429-25.415c0-14.577,2.692-26.532,8.077-35.871
			c5.385-9.337,11.977-14.007,19.774-14.007c2.896,0,5.474,0.709,7.734,2.125s4.66,3.9,7.201,7.451L213.193,547.523z"/>
		<path fill="#D69700" d="M230.333,561.959h24.691v5.139h-5.012c-0.708,0-1.261,0.396-1.659,1.188s-0.598,1.998-0.598,3.618v45.19
			c0,6.371,1.018,11.261,3.054,14.667c2.035,3.407,4.845,5.11,8.43,5.11c2.632,0,5.021-0.939,7.168-2.818
			c1.57-1.398,2.859-3.701,3.866-6.904c1.007-3.205,1.51-7.238,1.51-12.1v-34.693c0-4.42-0.592-7.734-1.775-9.943
			c-1.184-2.21-2.771-3.314-4.762-3.314h-0.73v-5.139h18.718v5.139h-1.295c-1.947,0-3.43,1.225-4.446,3.674
			c-1.019,2.449-1.527,5.479-1.527,9.087v37.622c0,8.36-1.682,15.082-5.044,20.164c-3.385,5.119-8.031,7.679-13.938,7.679
			c-4.227,0-7.904-1.151-11.035-3.452c-3.131-2.302-5.354-5.268-6.67-8.895c-1.317-3.627-1.975-8.426-1.975-14.392v-45.908
			c0-2.136-0.244-3.6-0.73-4.392c-0.487-0.792-1.36-1.188-2.622-1.188h-3.617V561.959z"/>
		<path fill="#D69700" d="M312.514,559.916l18.405,73.309c0.531,2.063,1.106,3.463,1.727,4.199s1.439,1.104,2.458,1.104h1.793v5.138
			h-23.031v-5.138h2.157c1.703,0,2.875-0.313,3.518-0.938c0.642-0.627,0.962-1.455,0.962-2.486c0-0.811-0.133-1.749-0.397-2.818
			l-3.786-15.137h-18.376l-1.744,6.906c-0.732,2.872-1.098,5.009-1.098,6.408c0,2.395,0.531,4.336,1.596,5.828
			s2.516,2.237,4.355,2.237h1.563v5.138h-18.651v-5.138h1.066c1.198,0,2.253-0.626,3.163-1.878c1.287-1.768,2.286-4.033,2.997-6.795
			l17.599-69.939H312.514z M307.178,580.6l-7.866,31.135h15.652L307.178,580.6z"/>
		<path fill="#D69700" d="M340.447,561.959h25.62c4.159,0,7.551,0.893,10.172,2.678c2.622,1.785,4.574,4.215,5.857,7.287
			c1.283,3.073,1.925,6.487,1.925,10.241c0,5.999-1.615,10.857-4.845,14.574c-2.456,2.835-6.239,4.675-11.351,5.521
			c2.564,0.702,4.537,1.819,5.918,3.352c1.382,1.533,2.603,3.813,3.664,6.842c1.396,3.978,2.538,8.748,3.426,14.309
			c0.554,3.572,1.042,5.819,1.462,6.739c0.42,0.921,0.896,1.382,1.428,1.382c1.46,0,2.334-3.223,2.621-9.668h2.921
			c-0.222,6.85-1.14,11.758-2.755,14.723s-3.895,4.447-6.836,4.447c-2.103,0-3.789-0.719-5.062-2.155s-2.24-3.536-2.903-6.298
			c-0.398-1.583-0.952-5.303-1.66-11.159c-0.818-6.851-1.555-11.454-2.207-13.812c-0.652-2.356-1.499-4.105-2.538-5.248
			c-1.04-1.141-2.323-1.713-3.85-1.713h-3.618v30.109c0,1.325,0.232,2.338,0.697,3.037c0.664,0.922,1.438,1.382,2.323,1.382h4.447
			v5.138h-24.857v-5.138h3.85c0.996,0,1.748-0.433,2.257-1.298s0.764-2.072,0.764-3.619v-61.598c0-1.693-0.232-2.937-0.697-3.729
			s-1.128-1.188-1.991-1.188h-4.182V561.959z M357.837,599.028h4.148c3.673,0,6.571-1.565,8.695-4.696
			c1.593-2.393,2.39-6.426,2.39-12.098c0-5.229-0.786-9.051-2.356-11.463c-1.571-2.412-4.293-3.619-8.164-3.619
			c-2.08,0-3.385,0.378-3.916,1.133s-0.797,2.439-0.797,5.055V599.028z"/>
		<path fill="#D69700" d="M394.377,561.959h26.417c4.801,0,9.015,1.695,12.644,5.083c3.629,3.389,6.472,8.214,8.529,14.474
			c2.058,6.262,3.087,13.314,3.087,21.159c0,8.14-0.941,15.22-2.821,21.241c-1.881,6.021-4.69,10.819-8.43,14.391
			c-3.739,3.573-7.755,5.359-12.047,5.359h-27.379v-5.138h4.082c0.995,0,1.747-0.45,2.257-1.354
			c0.508-0.901,0.763-2.163,0.763-3.784v-61.543c0-1.656-0.266-2.863-0.796-3.618c-0.531-0.755-1.428-1.132-2.688-1.132h-3.617
			V561.959z M418.504,638.528c3.03,0,5.719-1.271,8.064-3.814c2.345-2.543,4.037-6.018,5.077-10.423
			c1.04-4.403,1.56-11.231,1.56-20.482c0-9.73-0.613-17.186-1.842-22.364c-1.228-5.179-2.893-8.864-4.994-11.058
			c-2.103-2.192-5.188-3.289-9.26-3.289c-2.234,0-3.634,0.313-4.197,0.939c-0.564,0.627-0.847,1.77-0.847,3.428v61.866
			c0,1.844,0.227,3.171,0.681,3.981c0.453,0.811,1.178,1.216,2.174,1.216H418.504z"/>
		<path fill="#D69700" d="M450.928,561.959h25.155v5.139h-4.546c-0.975,0-1.682,0.322-2.124,0.967
			c-0.443,0.645-0.664,1.593-0.664,2.845v63.255c0,1.473,0.232,2.523,0.697,3.148c0.597,0.811,1.46,1.216,2.588,1.216h4.049v5.138
			h-25.155v-5.138h3.85c1.327,0,2.262-0.368,2.804-1.104s0.813-1.824,0.813-3.26v-62.537c0-1.547-0.249-2.688-0.747-3.425
			c-0.497-0.736-1.277-1.104-2.339-1.104h-4.381V561.959z"/>
		<path fill="#D69700" d="M506.26,559.916l18.405,73.309c0.531,2.063,1.106,3.463,1.727,4.199s1.439,1.104,2.458,1.104h1.793v5.138
			h-23.031v-5.138h2.157c1.703,0,2.875-0.313,3.518-0.938c0.642-0.627,0.962-1.455,0.962-2.486c0-0.811-0.133-1.749-0.397-2.818
			l-3.786-15.137h-18.376l-1.744,6.906c-0.732,2.872-1.098,5.009-1.098,6.408c0,2.395,0.531,4.336,1.596,5.828
			s2.516,2.237,4.355,2.237h1.563v5.138h-18.651v-5.138h1.066c1.198,0,2.253-0.626,3.163-1.878c1.287-1.768,2.286-4.033,2.997-6.795
			l17.599-69.939H506.26z M500.924,580.6l-7.866,31.135h15.652L500.924,580.6z M498.584,555.771l-0.929-1.27l5.376-12.762
			c1.703-4.051,3.451-6.077,5.243-6.077c0.996,0,1.897,0.617,2.705,1.851c0.808,1.234,1.211,2.533,1.211,3.895
			c0,1.474-0.293,2.771-0.879,3.895c-0.587,1.124-1.908,2.44-3.966,3.95L498.584,555.771z"/>
		<path fill="#D69700" d="M533.035,549.87h17.486l30.517,64.306V570.48c0-4.313-0.737-7.768-2.21-10.368
			c-1.474-2.601-3.568-4.048-6.286-4.345v-5.897h20.572v5.897c-2.87,0.508-4.928,1.935-6.172,4.281
			c-1.244,2.346-1.866,5.824-1.866,10.432v73.186h-4.405l-34.721-73.998v51.25c0,5.869,0.806,10.146,2.419,12.828
			c1.612,2.682,3.613,4.021,6,4.021h0.953v5.898h-22.744v-5.898h1.562c2.235,0,4.114-1.477,5.639-4.433
			c1.523-2.955,2.286-6.755,2.286-11.401v-60.546c-1.702-3.746-3.874-5.62-6.515-5.62h-2.515V549.87z"/>
	</g>
</g>
</svg>
